<svg width="845" height="572" viewBox="0 0 845 572" fill="none" xmlns="http://www.w3.org/2000/svg">
<path d="M427.735 160.527C420.066 147.843 410.978 134.299 396.746 130.158C380.264 125.361 363.333 134.889 348.971 144.292C306.022 172.412 264.661 202.886 225.078 235.575L225.121 236.068C255.938 233.942 286.755 231.817 317.572 229.692C339.837 228.157 362.868 226.409 382.544 215.876C390.011 211.88 397.289 206.541 405.75 206.169C416.261 205.706 425.427 213.048 432.63 220.718C475.237 266.089 487.567 335.472 535.368 375.334C505.226 300.999 469.236 229.171 427.735 160.527V160.527Z" fill="#F2F2F2"/>
<path d="M689.636 545.355C684.925 539.406 682.999 538.012 678.352 532.008C640.509 483.064 604.94 432.466 571.644 380.215C549.028 344.729 527.534 308.561 507.161 271.711C497.462 254.192 488.029 236.536 478.861 218.742C471.748 204.946 464.793 191.066 457.997 177.104C456.053 173.117 454.165 169.111 452.286 165.095C447.858 155.653 443.512 146.165 438.846 136.851C433.529 126.235 427.057 115.106 417.294 107.974C412.85 104.595 407.537 102.55 401.975 102.079C394.027 101.566 386.693 104.848 379.799 108.432C329.361 134.733 282.14 167.708 239.43 205.23C196.61 242.836 158.336 285.322 125.388 331.821C124.38 333.26 121.996 331.885 123.014 330.437C127.02 324.772 131.106 319.167 135.271 313.624C187.059 244.746 250.56 185.515 322.87 138.638C335.036 130.755 347.43 123.24 360.053 116.096C366.415 112.493 372.805 108.936 379.304 105.599C385.676 102.327 392.441 99.3839 399.72 99.2739C424.49 98.8889 437.315 126.941 446.125 145.816C448.894 151.757 451.696 157.679 454.531 163.583C465.248 185.997 476.377 208.206 487.919 230.211C495.042 243.797 502.321 257.303 509.756 270.73C532.894 312.542 557.486 353.508 583.534 393.627C618.04 446.77 652.271 493.716 691.58 543.412C692.662 544.787 690.728 546.749 689.636 545.355Z" fill="#E4E4E4"/>
<path d="M236.982 191.378C235.543 189.774 234.113 188.169 232.664 186.565C221.242 173.933 208.985 161.447 193.3 154.204C185.821 150.642 177.656 148.75 169.373 148.658C160.811 148.686 152.441 150.932 144.53 154.076C140.789 155.57 137.131 157.266 133.529 159.072C129.413 161.144 125.37 163.353 121.346 165.581C113.792 169.761 106.335 174.125 98.9774 178.672C84.337 187.72 70.1551 197.459 56.4318 207.888C49.3177 213.297 42.3505 218.883 35.53 224.646C29.1863 230 22.9709 235.497 16.8839 241.138C15.5822 242.339 13.6386 240.396 14.9403 239.195C16.5445 237.7 18.1672 236.215 19.7898 234.749C24.3735 230.605 29.0305 226.541 33.761 222.556C42.3872 215.277 51.2367 208.279 60.3095 201.563C74.4182 191.112 89.0125 181.37 104.092 172.337C111.628 167.827 119.268 163.506 127.011 159.375C129.349 158.128 131.714 156.909 134.106 155.754C139.535 153.015 145.176 150.719 150.974 148.887C159.187 146.23 167.877 145.377 176.45 146.385C184.728 147.589 192.703 150.348 199.955 154.516C215.356 163.124 227.301 176.435 238.925 189.425C240.099 190.745 238.164 192.698 236.982 191.378Z" fill="#E4E4E4"/>
<path d="M552.542 322.285L589.447 308.787L607.77 302.085C613.738 299.902 619.691 297.418 625.86 295.855C631.221 294.323 636.913 294.396 642.234 296.063C646.978 297.819 651.321 300.512 655.005 303.98C658.768 307.445 662.269 311.184 665.48 315.166C669.469 319.961 673.399 324.805 677.347 329.634C693.641 349.561 709.829 369.575 725.91 389.675C741.991 409.775 757.964 429.96 773.83 450.231C789.735 470.551 805.53 490.956 821.216 511.447C823.137 513.957 825.057 516.468 826.975 518.981C828.035 520.369 830.425 519 829.35 517.593C813.548 496.896 797.637 476.285 781.615 455.758C765.554 435.182 749.382 414.693 733.099 394.292C716.816 373.891 700.423 353.579 683.92 333.355C679.809 328.316 675.691 323.283 671.566 318.256C668.086 314.015 664.646 309.729 660.829 305.782C653.824 298.537 645.072 292.134 634.595 291.96C628.435 291.858 622.474 293.813 616.751 295.883C610.581 298.115 604.426 300.389 598.265 302.642L561.102 316.235L551.811 319.633C550.163 320.236 550.875 322.895 552.542 322.285L552.542 322.285Z" fill="#E4E4E4"/>
<path d="M188.443 170.1C169.689 160.461 145.672 162.349 128.438 174.391C161.31 180.063 193.822 187.651 225.809 197.117C212.526 189.333 202.136 177.137 188.443 170.1Z" fill="#F2F2F2"/>
<path d="M128.253 174.358L124.643 177.293C125.864 176.266 127.134 175.303 128.438 174.391C128.376 174.381 128.315 174.369 128.253 174.358Z" fill="#F2F2F2"/>
<path d="M653.615 322.42C649.982 317.998 646.054 313.368 640.621 311.571L635.548 311.771C674.165 380.01 726.322 439.637 788.815 486.992C743.748 432.135 698.682 377.277 653.615 322.42Z" fill="#F2F2F2"/>
<path d="M338.149 285.941C340.497 294.47 345.786 301.894 353.081 306.899C355.901 308.819 359.237 310.661 360.202 313.934C360.71 316.02 360.397 318.221 359.329 320.084C358.262 321.922 356.964 323.616 355.467 325.125L355.331 325.637C348.332 321.49 341.674 316.244 337.808 309.086C333.942 301.928 333.403 292.547 338.15 285.94" fill="#F2F2F2"/>
<path d="M571.149 488.941C573.497 497.47 578.786 504.894 586.081 509.899C588.901 511.819 592.237 513.661 593.202 516.934C593.71 519.02 593.397 521.221 592.329 523.084C591.262 524.922 589.964 526.616 588.467 528.125L588.331 528.637C581.332 524.49 574.674 519.244 570.808 512.086C566.942 504.928 566.403 495.547 571.15 488.941" fill="#F2F2F2"/>
<path d="M106.15 474.941C108.497 483.47 113.786 490.894 121.081 495.899C123.901 497.819 127.237 499.661 128.202 502.934C128.71 505.02 128.397 507.221 127.329 509.084C126.262 510.922 124.965 512.616 123.467 514.125L123.331 514.637C116.332 510.49 109.674 505.244 105.808 498.086C101.943 490.928 101.403 481.547 106.15 474.941" fill="#F2F2F2"/>
<path d="M641.249 102C669.415 102 692.249 79.1665 692.249 51C692.249 22.8335 669.415 0 641.249 0C613.082 0 590.249 22.8335 590.249 51C590.249 79.1665 613.082 102 641.249 102Z" fill="#005792"/>
<path d="M733.284 11.8704C708.567 8.52943 680.349 21.889 673.943 45.9939C672.328 41.7081 669.393 38.0464 665.562 35.5379C661.73 33.0295 657.2 31.8041 652.626 32.0388C648.052 32.2735 643.671 33.9561 640.116 36.8436C636.562 39.7311 634.017 43.674 632.849 48.1026L635.679 50.1293C688.647 61.5835 743.476 61.3356 796.338 49.4029C779.145 31.334 758.001 15.2112 733.284 11.8704Z" fill="#F0F0F0"/>
<path d="M627.284 79.8704C602.567 76.5294 574.349 89.889 567.943 113.994C566.328 109.708 563.393 106.046 559.562 103.538C555.73 101.029 551.2 99.8041 546.626 100.039C542.052 100.273 537.671 101.956 534.116 104.844C530.562 107.731 528.017 111.674 526.849 116.103L529.679 118.129C582.647 129.584 637.476 129.336 690.338 117.403C673.145 99.334 652.001 83.2112 627.284 79.8704Z" fill="#F0F0F0"/>
<path d="M843.011 92.7282C842.909 92.7284 842.807 92.7126 842.709 92.6814C578.303 9.06319 345.265 19.9977 196.33 43.8952C176.061 47.1462 155.738 50.9011 135.926 55.0563C130.868 56.1159 125.62 57.2517 120.329 58.4343C114.01 59.8415 107.775 61.2907 101.797 62.7399C99.2149 63.3513 96.6833 63.9675 94.2022 64.5886C90.4439 65.5163 86.6304 66.4831 82.5425 67.5456C77.9746 68.7233 73.3335 69.9587 68.7451 71.2175C68.7283 71.2234 68.7112 71.2283 68.6939 71.2321L68.6943 71.2331C63.5117 72.6481 58.3564 74.1042 53.3711 75.5583C50.6729 76.3376 48.0674 77.1062 45.5718 77.8649C45.293 77.9421 45.0459 78.0163 44.7954 78.0925L44.2593 78.2556C43.9487 78.3503 43.6421 78.4431 43.3355 78.5309L43.3159 78.5368L43.3164 78.5378L42.5049 78.7898C41.5371 79.0828 40.5928 79.3689 39.6641 79.6541C15.1191 87.2205 1.62598 92.6033 1.49268 92.656C1.37078 92.7049 1.24047 92.7292 1.10915 92.7277C0.977836 92.7262 0.848104 92.6989 0.727361 92.6472C0.606618 92.5956 0.49722 92.5207 0.405431 92.4268C0.313642 92.3329 0.241248 92.2218 0.192388 92.0999C0.143527 91.978 0.119165 91.8476 0.120671 91.7163C0.122177 91.585 0.149533 91.4553 0.201177 91.3345C0.25282 91.2138 0.327732 91.1044 0.421651 91.0126C0.515569 90.9208 0.626644 90.8484 0.74854 90.7996C0.88282 90.7468 14.4419 85.3367 39.0762 77.742C40.0083 77.4558 40.9551 77.1697 41.9258 76.8758L42.6797 76.6414C42.7056 76.6316 42.7314 76.6238 42.7578 76.616C43.063 76.5291 43.3677 76.4363 43.6772 76.3425L44.2144 76.1795C44.4819 76.0984 44.7456 76.0183 45.0156 75.9441C47.4941 75.1902 50.1084 74.4197 52.8135 73.6375C57.8008 72.1824 62.9609 70.7263 68.1475 69.3093C68.1636 69.3035 68.1802 69.2996 68.1963 69.2947V69.2937C72.8008 68.031 77.459 66.7908 82.0415 65.6091C86.1358 64.5457 89.9565 63.5769 93.7212 62.6472C96.2129 62.0271 98.7494 61.4096 101.331 60.7947C107.316 59.3435 113.563 57.8923 119.894 56.4822C125.193 55.2986 130.449 54.1599 135.516 53.0994C155.359 48.9373 175.713 45.1765 196.013 41.9207C345.162 17.989 578.533 7.0368 843.312 90.7751C843.54 90.8469 843.734 90.9979 843.86 91.2007C843.986 91.4035 844.036 91.6447 843.999 91.8806C843.963 92.1166 843.843 92.3318 843.662 92.4873C843.481 92.6427 843.25 92.7282 843.011 92.7282V92.7282Z" fill="#CCCCCC"/>
<path d="M254.989 419.84C254.643 418.827 254.06 417.912 253.289 417.17C253.004 416.906 252.696 416.668 252.369 416.46C249.759 414.72 245.859 414.33 243.379 416.46C243.129 416.677 242.898 416.914 242.689 417.17C241.949 418.08 241.189 418.97 240.409 419.84C239.129 421.3 237.819 422.71 236.449 424.08C236.059 424.46 235.669 424.85 235.269 425.23C235.039 425.46 234.809 425.68 234.579 425.9C233.699 426.74 232.799 427.55 231.889 428.35C231.409 428.78 230.929 429.2 230.439 429.61C229.709 430.22 228.979 430.83 228.239 431.42C228.169 431.47 228.099 431.52 228.029 431.58C228.009 431.59 227.999 431.61 227.979 431.62C227.969 431.62 227.959 431.62 227.949 431.64C227.922 431.651 227.898 431.668 227.879 431.69C227.659 431.84 227.509 431.94 227.399 432.03C227.439 432.01 227.479 431.98 227.519 431.96C227.339 432.1 227.149 432.24 226.969 432.38C225.219 433.67 223.429 434.91 221.599 436.07C217.071 438.968 212.316 441.493 207.379 443.62C207.049 443.75 206.709 443.89 206.369 444.02C193.443 449.315 179.422 451.382 165.519 450.04C164.099 449.93 162.679 449.78 161.259 449.59C159.619 449.35 157.989 449.06 156.369 448.73C150.201 447.499 144.167 445.678 138.349 443.29C131.071 439.957 124.149 435.897 117.689 431.17C116.689 430.46 115.679 429.75 114.669 429.06C115.819 426.24 116.949 423.42 118.049 420.58C118.599 419.21 119.129 417.84 119.649 416.46C123.739 405.83 127.579 395.1 131.259 384.33C134.979 373.42 138.489 362.447 141.789 351.41C142.129 350.29 142.459 349.17 142.779 348.05C144.509 342.22 146.169 336.377 147.759 330.52C147.909 329.95 148.069 329.39 148.209 328.82C148.669 327.14 149.119 325.46 149.559 323.78C150.559 319.99 148.299 315.46 144.319 314.55C142.403 314.059 140.37 314.33 138.651 315.308C136.931 316.285 135.657 317.892 135.099 319.79C134.669 321.41 134.239 323.02 133.799 324.64C131.689 332.47 129.469 340.273 127.139 348.05C126.799 349.17 126.459 350.29 126.119 351.41C120.979 368.35 115.335 385.12 109.189 401.72C108.449 403.73 107.699 405.733 106.939 407.73C106.569 408.71 106.199 409.69 105.819 410.67C105.089 412.6 104.339 414.53 103.589 416.46C103.159 417.59 102.719 418.72 102.279 419.84C101.989 420.55 101.709 421.26 101.429 421.96C98.5776 420.936 95.6236 420.225 92.6188 419.84L92.1388 419.78C89.8092 419.5 87.4533 419.52 85.1288 419.84C81.6499 420.246 78.3026 421.411 75.3235 423.253C72.3445 425.095 69.8065 427.569 67.8888 430.5C63.1188 438.01 63.1788 448.75 69.8688 455.13C76.7588 461.7 87.1888 461.65 95.2988 457.54C99.5966 455.215 103.22 451.818 105.819 447.68C106.814 446.18 107.729 444.628 108.559 443.03C108.769 443.17 108.979 443.31 109.189 443.46C109.989 444.02 110.789 444.59 111.579 445.15C116.182 448.485 121.033 451.463 126.089 454.06C136.961 459.465 148.664 463.004 160.709 464.53C160.979 464.56 161.239 464.6 161.509 464.63C162.839 464.8 164.179 464.93 165.519 465.04C184.741 466.489 203.987 462.555 221.099 453.68C222.549 452.93 223.985 452.143 225.409 451.32C227.619 450.04 229.779 448.68 231.889 447.24C233.039 446.46 234.159 445.67 235.269 444.84C240.119 441.267 244.641 437.268 248.779 432.89C250.349 431.24 251.852 429.537 253.289 427.78C254.647 426.343 255.43 424.457 255.489 422.48C255.481 421.577 255.312 420.683 254.989 419.84V419.84ZM89.3988 443.66C89.6088 443.51 89.8188 443.35 90.0188 443.19C89.9589 443.34 89.6688 443.51 89.3989 443.66H89.3988ZM92.6088 440.43C92.3788 440.69 92.1688 440.95 91.9388 441.21C91.2391 441.993 90.4874 442.728 89.6888 443.41C89.5788 443.51 89.4588 443.61 89.3388 443.7C89.3375 443.7 89.3362 443.7 89.335 443.701C89.3337 443.701 89.3326 443.702 89.3317 443.703C89.3308 443.704 89.33 443.705 89.3295 443.706C89.329 443.707 89.3288 443.709 89.3288 443.71C89.1844 443.775 89.0441 443.848 88.9088 443.93C88.4788 444.19 88.0388 444.43 87.5888 444.65C86.7078 444.974 85.8013 445.225 84.8788 445.4C84.17 445.452 83.4586 445.458 82.7488 445.42H82.7288C82.239 445.311 81.7551 445.178 81.2788 445.02C81.0388 444.9 80.8088 444.76 80.5788 444.62C80.4888 444.54 80.4088 444.46 80.3588 444.41C80.2611 444.321 80.1709 444.224 80.0889 444.12C80.0889 444.119 80.0887 444.117 80.0882 444.116C80.0877 444.115 80.087 444.114 80.086 444.113C80.0851 444.112 80.084 444.111 80.0827 444.111C80.0815 444.11 80.0802 444.11 80.0789 444.11C79.9688 443.91 79.8488 443.71 79.7389 443.51C79.7332 443.505 79.7296 443.498 79.7289 443.49C79.6489 443.24 79.5789 442.98 79.5189 442.72C79.4972 442.263 79.5005 441.806 79.5289 441.35C79.6631 440.711 79.8435 440.083 80.0689 439.47C80.2714 439.036 80.5018 438.615 80.7589 438.21C80.7789 438.17 80.8789 438.01 80.9889 437.83C80.9989 437.82 80.9989 437.82 80.9989 437.81C81.1489 437.64 81.2989 437.46 81.4589 437.3C81.7289 437 82.0189 436.74 82.3089 436.47C82.8729 436.101 83.4571 435.764 84.0589 435.46C85.0135 435.121 85.9932 434.857 86.9889 434.67C88.4572 434.553 89.9329 434.567 91.3989 434.71C92.7874 434.951 94.1574 435.288 95.4989 435.72C94.6858 437.298 93.7601 438.815 92.7289 440.26C92.6888 440.32 92.6489 440.38 92.6088 440.43V440.43ZM81.4888 437.14C81.4007 437.281 81.2967 437.412 81.1788 437.53C81.2582 437.383 81.3632 437.251 81.4888 437.14V437.14Z" fill="#FD5F00"/>
<path d="M224.929 317.71C224.839 320.85 224.749 323.99 224.659 327.13C224.469 334.1 224.272 341.073 224.069 348.05C223.859 355.9 223.639 363.747 223.409 371.59C223.299 375.64 223.185 379.69 223.069 383.74C222.759 394.65 222.452 405.557 222.149 416.46C222.119 417.59 222.079 418.71 222.049 419.84C221.899 425.25 221.749 430.66 221.599 436.07C221.429 441.94 221.262 447.81 221.099 453.68C220.979 458.08 220.855 462.483 220.729 466.89C219.829 498.82 218.929 530.75 218.029 562.68C217.991 564.657 217.188 566.543 215.79 567.941C214.392 569.34 212.506 570.142 210.529 570.18C208.545 570.164 206.646 569.369 205.243 567.966C203.84 566.563 203.045 564.664 203.029 562.68C203.529 544.72 204.035 526.76 204.549 508.8C204.999 492.56 205.455 476.32 205.919 460.08C206.069 454.73 206.219 449.377 206.369 444.02C206.599 435.96 206.825 427.9 207.049 419.84C207.079 418.71 207.119 417.59 207.149 416.46C207.169 415.47 207.199 414.49 207.229 413.5C207.669 397.85 208.109 382.197 208.549 366.54C208.729 360.38 208.902 354.217 209.069 348.05C209.269 341.02 209.469 333.993 209.669 326.97C209.759 323.88 209.839 320.8 209.929 317.71C209.967 315.733 210.769 313.847 212.168 312.449C213.566 311.05 215.452 310.248 217.429 310.21C219.413 310.226 221.311 311.021 222.714 312.424C224.117 313.827 224.913 315.726 224.929 317.71V317.71Z" fill="#FD5F00"/>
<path d="M636.357 319.791C628.492 349.571 619.093 378.924 608.196 407.732C605.189 415.679 602.113 423.609 598.824 431.444L599.58 429.653C598.113 433.385 596.238 436.943 593.991 440.265C593.838 440.479 593.682 440.691 593.524 440.901C594.301 439.907 594.449 439.711 593.967 440.312C593.713 440.613 593.462 440.914 593.199 441.207C592.499 441.991 591.748 442.727 590.95 443.411C590.749 443.582 590.545 443.751 590.338 443.915L591.276 443.186C591.167 443.443 590.403 443.783 590.165 443.929C589.395 444.394 588.591 444.801 587.761 445.147L589.552 444.391C588.191 444.94 586.771 445.329 585.321 445.552L587.315 445.284C585.89 445.481 584.446 445.496 583.017 445.33L585.011 445.598C583.842 445.437 582.698 445.129 581.606 444.681L583.397 445.437C582.815 445.183 582.254 444.884 581.719 444.541C581.447 444.364 580.613 443.732 581.704 444.565C582.837 445.431 581.849 444.64 581.616 444.41C581.422 444.218 581.247 444.01 581.056 443.815C580.174 442.91 582.053 445.371 581.453 444.313C581.133 443.783 580.84 443.237 580.575 442.676L581.331 444.468C580.987 443.615 580.743 442.726 580.603 441.817L580.871 443.81C580.728 442.68 580.727 441.536 580.868 440.406L580.6 442.399C580.783 441.137 581.117 439.902 581.595 438.719L580.839 440.511C581.172 439.715 581.565 438.947 582.017 438.212C582.225 437.833 582.468 437.474 582.745 437.141C582.794 437.157 581.477 438.654 582.176 437.898C582.359 437.7 582.53 437.492 582.715 437.296C583.011 436.982 583.328 436.695 583.64 436.398C584.685 435.404 582.179 437.364 583.384 436.577C584.258 436.003 585.177 435.501 586.133 435.078L584.342 435.834C585.943 435.176 587.621 434.726 589.337 434.494L587.343 434.762C589.491 434.515 591.662 434.541 593.804 434.838L591.81 434.571C594.522 434.982 597.173 435.727 599.702 436.791L597.91 436.034C603.3 438.348 608.073 441.784 612.838 445.152C617.44 448.485 622.29 451.463 627.344 454.059C638.217 459.465 649.92 463.005 661.966 464.533C679.242 466.649 696.772 464.393 712.949 457.971C729.126 451.55 743.431 441.169 754.552 427.781C755.909 426.342 756.69 424.454 756.749 422.477C756.734 420.491 755.946 418.589 754.552 417.174C751.8 414.648 746.603 413.935 743.945 417.174C741.427 420.249 738.72 423.163 735.839 425.901C734.494 427.177 733.113 428.414 731.696 429.611C730.887 430.295 730.067 430.965 729.236 431.622C728.842 431.933 727.617 432.76 729.499 431.425C729.067 431.731 728.654 432.065 728.228 432.379C721.93 437.022 715.105 440.904 707.896 443.944L709.688 443.188C701.951 446.433 693.826 448.659 685.516 449.811L687.51 449.543C678.962 450.667 670.302 450.654 661.757 449.505L663.75 449.773C655.207 448.599 646.852 446.324 638.893 443.002L640.685 443.758C633.005 440.36 625.717 436.139 618.948 431.167C615.426 428.559 611.711 426.221 607.836 424.173C603.321 421.867 598.432 420.381 593.398 419.785C583.959 418.674 574.341 422.35 569.151 430.505C564.376 438.01 564.437 448.749 571.125 455.13C578.013 461.703 588.444 461.647 596.561 457.536C604.378 453.576 609.074 445.35 612.376 437.594C619.807 420.139 626.386 402.28 632.516 384.331C638.58 366.573 644.079 348.635 649.014 330.518C649.625 328.274 650.227 326.028 650.821 323.779C651.822 319.99 649.56 315.459 645.583 314.553C643.666 314.06 641.632 314.33 639.911 315.307C638.19 316.285 636.915 317.892 636.357 319.791L636.357 319.791Z" fill="#FD5F00"/>
<path d="M711.189 317.71L708.49 413.503L705.804 508.797L704.286 562.681C704.303 564.664 705.098 566.562 706.501 567.965C707.904 569.368 709.802 570.164 711.786 570.181C713.763 570.142 715.649 569.34 717.047 567.942C718.445 566.543 719.248 564.658 719.286 562.681L721.985 466.887L724.671 371.593L726.189 317.71C726.173 315.726 725.377 313.828 723.974 312.425C722.571 311.022 720.673 310.226 718.689 310.21C716.712 310.248 714.827 311.05 713.428 312.449C712.03 313.847 711.228 315.732 711.189 317.71V317.71Z" fill="#FD5F00"/>
<path d="M511.887 390.061C503.278 373.268 489.941 359.14 474.255 348.757C458.518 338.389 440.461 332.074 421.692 330.377C419.232 330.153 416.765 330.023 414.293 329.984C411.372 329.941 367.427 342.616 352.706 352.966C337.993 363.191 325.89 376.73 317.373 392.493C308.871 408.343 304.689 426.15 305.247 444.127C305.976 462.212 311.017 479.861 319.95 495.603C328.761 511.293 341.272 524.594 356.394 534.348C371.732 544.135 387.139 570.084 405.249 571C423.494 571.923 444.303 547.445 460.944 540.013C477.585 532.519 491.971 520.794 502.669 506.008C513.065 491.517 519.79 474.721 522.268 457.06C524.842 438.977 523.642 420.327 517.467 403.044C515.883 398.603 514.019 394.266 511.887 390.061C510.107 386.555 504.891 385.265 501.625 387.37C499.943 388.406 498.725 390.05 498.224 391.961C497.723 393.873 497.977 395.903 498.935 397.631C499.98 399.69 500.952 401.782 501.85 403.909L501.094 402.117C504.494 410.292 506.806 418.879 507.971 427.656L507.703 425.662C508.941 435.184 508.919 444.828 507.636 454.344L507.904 452.35C506.608 461.866 504.068 471.17 500.35 480.025L501.106 478.233C499.193 482.751 496.964 487.128 494.434 491.331C493.152 493.455 491.792 495.529 490.354 497.553C489.722 498.441 489.071 499.314 488.415 500.184C487.558 501.32 489.582 498.701 488.697 499.815C488.546 500.004 488.397 500.195 488.245 500.384C487.791 500.952 487.33 501.514 486.863 502.072C483.745 505.791 480.343 509.263 476.687 512.455C475.776 513.25 474.85 514.027 473.909 514.786C473.44 515.165 472.977 515.559 472.488 515.911C472.507 515.898 474.068 514.712 473.144 515.4C472.853 515.617 472.565 515.836 472.274 516.052C470.334 517.489 468.343 518.853 466.3 520.144C461.596 523.107 456.662 525.687 451.544 527.857L453.336 527.101C444.508 530.817 435.229 533.356 425.739 534.653L427.733 534.385C418.248 535.667 408.634 535.684 399.144 534.435L401.138 534.703C392.513 533.545 384.076 531.264 376.042 527.919L377.834 528.675C373.181 526.71 368.694 524.372 364.418 521.684C362.302 520.35 360.241 518.935 358.234 517.436C357.948 517.223 357.664 517.006 357.379 516.791C356.464 516.1 358.037 517.301 358.05 517.309C357.517 516.927 357.005 516.518 356.515 516.084C355.546 515.295 354.592 514.488 353.653 513.662C349.897 510.355 346.39 506.775 343.16 502.953C342.351 501.997 341.56 501.027 340.786 500.042C340.451 499.616 339.839 498.752 341.19 500.571C341.012 500.332 340.828 500.097 340.649 499.859C340.218 499.287 339.792 498.711 339.373 498.131C337.904 496.099 336.508 494.017 335.185 491.885C332.195 487.059 329.585 482.008 327.38 476.777L328.136 478.568C324.527 469.982 322.059 460.959 320.795 451.731L321.063 453.725C319.923 445.219 319.907 436.6 321.015 428.089L320.747 430.083C321.883 421.842 324.1 413.786 327.341 406.124L326.585 407.916C328.625 403.119 331.03 398.487 333.781 394.059C335.158 391.844 336.617 389.682 338.158 387.575C338.508 387.096 338.863 386.62 339.221 386.147C339.545 385.719 340.436 384.653 338.915 386.535C339.064 386.351 339.208 386.161 339.355 385.975C340.201 384.903 341.067 383.848 341.954 382.81C345.312 378.879 348.949 375.196 352.838 371.789C353.82 370.928 354.819 370.085 355.832 369.26C356.293 368.885 356.757 368.514 357.223 368.147C357.41 368 357.599 367.856 357.785 367.709C355.787 369.298 357.23 368.141 357.683 367.801C359.773 366.236 361.918 364.749 364.119 363.34C369.011 360.211 374.158 357.499 379.505 355.232L377.714 355.988C385.474 352.73 419.854 345.039 426.108 345.879L424.114 345.611C433.305 346.894 442.288 349.376 450.834 352.993L449.042 352.237C453.373 354.076 457.581 356.19 461.642 358.566C463.671 359.756 465.66 361.01 467.61 362.329C468.532 362.953 469.445 363.591 470.348 364.244C470.799 364.57 471.248 364.899 471.694 365.233C471.942 365.418 472.188 365.605 472.435 365.791C473.475 366.57 471.004 364.662 472.093 365.524C475.739 368.388 479.202 371.479 482.461 374.777C484.062 376.407 485.607 378.089 487.098 379.822C487.862 380.712 488.611 381.614 489.344 382.53C489.709 382.985 490.949 384.631 489.429 382.614C489.8 383.107 490.176 383.597 490.543 384.093C493.703 388.371 496.51 392.898 498.935 397.631C500.728 401.129 505.922 402.433 509.196 400.322C510.879 399.287 512.098 397.642 512.599 395.731C513.1 393.819 512.845 391.789 511.887 390.061Z" fill="#FD5F00"/>
<path d="M87.2488 450C93.3239 450 98.2488 445.075 98.2488 439C98.2488 432.925 93.3239 428 87.2488 428C81.1736 428 76.2488 432.925 76.2488 439C76.2488 445.075 81.1736 450 87.2488 450Z" fill="#FD5F00"/>
<path d="M747.249 430C753.324 430 758.249 425.075 758.249 419C758.249 412.925 753.324 408 747.249 408C741.174 408 736.249 412.925 736.249 419C736.249 425.075 741.174 430 747.249 430Z" fill="#FD5F00"/>
<path d="M715.249 328C721.324 328 726.249 323.075 726.249 317C726.249 310.925 721.324 306 715.249 306C709.174 306 704.249 310.925 704.249 317C704.249 323.075 709.174 328 715.249 328Z" fill="#FD5F00"/>
<path d="M256.249 419C256.242 421.81 255.156 424.51 253.214 426.541C251.272 428.571 248.624 429.778 245.817 429.911C243.011 430.044 240.26 429.093 238.136 427.254C236.011 425.415 234.674 422.83 234.402 420.034C234.13 417.237 234.944 414.443 236.675 412.23C238.406 410.016 240.921 408.553 243.701 408.143C246.481 407.732 249.312 408.406 251.608 410.025C253.905 411.644 255.491 414.084 256.039 416.84C256.18 417.551 256.25 418.275 256.249 419V419Z" fill="#FD5F00"/>
<path d="M476.249 360C482.324 360 487.249 355.075 487.249 349C487.249 342.925 482.324 338 476.249 338C470.174 338 465.249 342.925 465.249 349C465.249 355.075 470.174 360 476.249 360Z" fill="#FD5F00"/>
<path d="M367.249 349C367.242 351.81 366.156 354.51 364.214 356.541C362.272 358.572 359.624 359.778 356.817 359.911C354.011 360.044 351.26 359.093 349.136 357.254C347.011 355.415 345.674 352.83 345.402 350.034C345.13 347.237 345.944 344.443 347.675 342.23C349.406 340.016 351.921 338.553 354.701 338.143C357.481 337.732 360.312 338.406 362.608 340.025C364.905 341.644 366.491 344.084 367.039 346.84C367.18 347.551 367.25 348.275 367.249 349V349Z" fill="#FD5F00"/>
<path d="M225.249 317C225.242 319.81 224.156 322.51 222.214 324.541C220.272 326.572 217.624 327.778 214.817 327.911C212.011 328.044 209.26 327.093 207.136 325.254C205.011 323.415 203.674 320.83 203.402 318.034C203.13 315.237 203.944 312.443 205.675 310.23C207.406 308.016 209.921 306.553 212.701 306.143C215.481 305.732 218.312 306.406 220.608 308.025C222.905 309.644 224.491 312.084 225.039 314.84C225.18 315.551 225.25 316.275 225.249 317V317Z" fill="#FD5F00"/>
<path d="M591.249 454C597.324 454 602.249 449.075 602.249 443C602.249 436.925 597.324 432 591.249 432C585.174 432 580.249 436.925 580.249 443C580.249 449.075 585.174 454 591.249 454Z" fill="#FD5F00"/>
<path d="M418.249 354C427.085 354 434.249 346.837 434.249 338C434.249 329.163 427.085 322 418.249 322C409.412 322 402.249 329.163 402.249 338C402.249 346.837 409.412 354 418.249 354Z" fill="#FD5F00"/>
</svg>
