<svg width="200" height="200" viewBox="0 0 393 287" fill="none" xmlns="http://www.w3.org/2000/svg">
<path d="M387.506 0.770767H5.4878C4.03272 0.772173 2.63762 1.38596 1.60874 2.47735C0.579866 3.56875 0.00127814 5.04857 0 6.59202V281.179C0.00127648 282.722 0.579865 284.202 1.60874 285.293C2.63762 286.385 4.03272 286.999 5.4878 287H387.506C388.299 287 389.083 286.817 389.804 286.465C390.524 286.112 391.164 285.598 391.679 284.957C391.722 284.907 391.762 284.853 391.798 284.797C392.126 284.372 392.391 283.897 392.585 283.388C392.861 282.689 393.002 281.937 393 281.179V6.59206C392.998 5.04752 392.419 3.56682 391.389 2.47529C390.358 1.38377 388.962 0.77068 387.506 0.770767ZM391.433 281.179C391.434 281.991 391.208 282.785 390.785 283.462C390.409 284.057 389.898 284.544 389.3 284.877C388.745 285.181 388.13 285.339 387.506 285.338H5.4878C4.4483 285.336 3.45174 284.898 2.7167 284.118C1.98167 283.338 1.56818 282.281 1.56691 281.179V6.59206C1.56817 5.48943 1.98167 4.43234 2.7167 3.65266C3.45174 2.87298 4.4483 2.43436 5.4878 2.43302H387.506C388.546 2.43288 389.544 2.87082 390.281 3.65062C391.017 4.43042 391.432 5.48835 391.433 6.59206V281.179Z" fill="#005792"/>
<path d="M392.213 24.102H0.782074V25.7661H392.213V24.102Z" fill="#005792"/>
<path d="M14.1174 18.2442C16.7168 18.2442 18.824 16.009 18.824 13.2518C18.824 10.4946 16.7168 8.25938 14.1174 8.25938C11.518 8.25938 9.4108 10.4946 9.4108 13.2518C9.4108 16.009 11.518 18.2442 14.1174 18.2442Z" fill="#3F3D56"/>
<path d="M27.6488 18.2442C30.2482 18.2442 32.3554 16.009 32.3554 13.2518C32.3554 10.4946 30.2482 8.25938 27.6488 8.25938C25.0494 8.25938 22.9422 10.4946 22.9422 13.2518C22.9422 16.009 25.0494 18.2442 27.6488 18.2442Z" fill="#3F3D56"/>
<path d="M41.1803 18.2442C43.7796 18.2442 45.8868 16.009 45.8868 13.2518C45.8868 10.4946 43.7796 8.25938 41.1803 8.25938C38.5809 8.25938 36.4737 10.4946 36.4737 13.2518C36.4737 16.009 38.5809 18.2442 41.1803 18.2442Z" fill="#3F3D56"/>
<path d="M174.317 165.575C169.61 162.325 167.268 154.771 168.422 147.863C169.575 140.955 173.919 135.005 179.125 132.439C181.658 131.228 184.435 130.704 187.206 130.913C189.978 131.122 192.657 132.057 195.003 133.636C199.777 136.733 206.531 138.43 208.798 144.626C210.541 149.388 208.331 159.057 205.985 163.683C203.958 167.68 200.106 169.509 196.487 170.303C192.484 171.169 188.352 171.113 184.37 170.139C180.389 169.164 176.651 167.294 173.41 164.655L174.317 165.575Z" fill="#2F2E41"/>
<path d="M171.861 202.265L168.098 209.148L167.601 210.056L166.877 211.391H155.782L156.53 210.056L158.469 206.591L162.988 198.5L168.104 200.669L171.861 202.265Z" fill="#FFB8B8"/>
<path d="M154.951 211.39L152.924 210.055L152.673 209.888L165.392 185.302C165.939 184.237 166.679 183.299 167.571 182.54C168.462 181.782 169.486 181.218 170.584 180.882C171.97 180.444 173.438 180.387 174.851 180.715C175.675 180.9 176.469 181.215 177.205 181.65C177.508 181.826 177.8 182.022 178.08 182.237C179.155 183.037 180.039 184.094 180.66 185.322C181.399 186.759 181.764 188.379 181.718 190.016C181.671 191.653 181.215 193.247 180.396 194.634L175.493 202.946L171.301 210.055L170.515 211.39H154.951Z" fill="#2F2E41"/>
<path d="M187.629 174.301C196.166 174.301 203.087 166.96 203.087 157.905C203.087 148.849 196.166 141.508 187.629 141.508C179.092 141.508 172.172 148.849 172.172 157.905C172.172 166.96 179.092 174.301 187.629 174.301Z" fill="#E0AC69"/>
<path d="M203.147 211.39H168.4L168.558 210.917C168.469 210.629 168.388 210.342 168.312 210.055C168.23 209.755 168.161 209.448 168.098 209.147C167.534 206.353 167.536 203.463 168.104 200.669C170.024 190.669 177.683 182.545 177.683 182.545C177.815 182.438 177.947 182.338 178.08 182.238C179.219 181.353 180.455 180.617 181.761 180.048C187.451 177.544 193.417 178.552 197.426 179.848C198.822 180.295 200.187 180.846 201.51 181.497C201.976 181.73 202.228 181.877 202.228 181.877L202.624 194.701L203.103 210.055L203.147 211.39Z" fill="#005792"/>
<path d="M219.221 210.055L216.565 195.729L213.884 181.283C213.772 180.686 213.493 180.139 213.083 179.714C212.673 179.289 212.151 179.005 211.586 178.9L205.972 177.872L200.749 176.917C200.245 176.821 199.726 176.872 199.248 177.067C198.77 177.261 198.351 177.59 198.036 178.018C197.644 178.537 197.429 179.182 197.426 179.848C197.426 180.259 197.505 180.665 197.659 181.043C200.384 187.785 200.434 198.46 199.742 210.055C199.711 210.496 199.685 210.943 199.654 211.391H219.472L219.221 210.055Z" fill="#2F2E41"/>
<path d="M181.761 180.048C181.646 179.562 181.418 179.114 181.099 178.745C180.78 178.376 180.379 178.096 179.933 177.932C179.486 177.768 179.009 177.724 178.542 177.804C178.076 177.885 177.636 178.087 177.262 178.392L174.851 180.715L164.983 190.248C164.675 190.541 164.434 190.904 164.278 191.31C163.164 194.134 160.993 199.708 158.469 206.591C158.06 207.712 157.638 208.867 157.204 210.055C157.053 210.496 156.889 210.943 156.726 211.39H172.988C173.12 210.943 173.253 210.496 173.385 210.055C174.108 207.632 174.813 205.255 175.493 202.946C177.482 196.237 179.275 190.142 180.66 185.322C181.044 183.987 181.394 182.754 181.711 181.623C181.859 181.112 181.876 180.568 181.761 180.048Z" fill="#2F2E41"/>
<path d="M222.871 211.391H223.922L223.777 211.017L223.393 210.056L217.471 195.149L216.565 195.729L209.289 200.396L213.021 210.056L213.537 211.391H219.472H222.871Z" fill="#FFB8B8"/>
<path d="M216.867 183.326C216.065 181.101 214.484 179.291 212.454 178.274C210.423 177.258 208.101 177.114 205.972 177.872C205.7 177.967 205.434 178.079 205.173 178.205C203.682 178.911 202.412 180.053 201.51 181.497C201.143 182.073 200.841 182.694 200.61 183.346C200.202 184.477 200.009 185.683 200.042 186.895C200.076 188.106 200.335 189.298 200.806 190.402L202.624 194.701L209.132 210.055L209.698 211.391H222.871L223.777 211.017L226.131 210.055L226.458 209.922L216.867 183.326Z" fill="#2F2E41"/>
<path d="M199.77 139.073C200.309 139.245 200.886 139.223 201.411 139.011C201.937 138.799 202.383 138.41 202.679 137.902C202.959 137.385 203.124 136.807 203.161 136.212C203.198 135.617 203.106 135.02 202.892 134.469C202.453 133.368 201.762 132.401 200.881 131.655C199.88 130.695 198.662 130.026 197.345 129.714C196.687 129.564 196.007 129.565 195.35 129.719C194.692 129.872 194.074 130.173 193.536 130.602C193.008 131.045 192.616 131.646 192.412 132.326C192.207 133.007 192.198 133.736 192.387 134.422C192.787 135.653 193.871 136.478 194.954 137.093C197.102 138.309 199.471 139.023 201.901 139.187L199.77 139.073Z" fill="#2F2E41"/>
<path d="M202.777 157.415C200.292 157.778 200.611 156.437 199.615 153.994C198.62 151.552 197.288 148.652 194.79 148.405C192.743 148.202 191.057 149.938 189.398 151.227C186.443 153.524 182.459 154.648 179.033 153.27C175.607 151.892 173.226 147.561 174.526 143.927C174.931 142.923 175.526 142.019 176.273 141.269C177.021 140.519 177.906 139.94 178.873 139.568C180.813 138.836 182.874 138.533 184.929 138.676C189.499 138.831 193.982 140.048 198.06 142.241C200.874 143.758 203.614 145.928 204.682 149.08C205.75 152.231 206.453 156.66 203.399 157.512L202.777 157.415Z" fill="#2F2E41"/>
<path d="M198.5 130.405C197.271 128.137 198.285 125.025 200.295 123.51C202.305 121.995 205.001 121.846 207.399 122.454C209.771 123.087 211.944 124.372 213.701 126.177C215.457 127.983 216.735 130.247 217.406 132.742C218.424 136.708 217.819 140.968 218.681 144.976C219.14 147.112 220.007 149.126 221.228 150.893C222.449 152.661 223.998 154.145 225.78 155.253C227.562 156.362 229.539 157.071 231.589 157.339C233.639 157.607 235.719 157.426 237.701 156.809C240.283 156.004 242.906 154.049 243.16 151.208C243.428 154.471 242.726 157.741 241.154 160.56C239.583 163.379 237.219 165.606 234.395 166.929C231.069 168.401 227.358 168.497 223.756 168.398C221.408 168.335 219.006 168.185 216.84 167.221C215.342 166.496 213.995 165.461 212.878 164.177C211.761 162.893 210.897 161.385 210.337 159.742C209.234 156.439 208.936 152.895 209.471 149.438C209.826 146.748 210.531 144.113 210.728 141.405C210.925 138.698 210.551 135.807 208.978 133.665C207.404 131.524 204.399 130.43 202.162 131.75C201.263 132.28 200.537 133.147 199.56 133.489C198.584 133.831 197.199 133.23 197.288 132.142L198.5 130.405Z" fill="#2F2E41"/>
<path d="M303.982 211.39L304.101 210.055L307.651 170.882C308.815 169.916 310.065 169.073 311.383 168.365C318.69 164.46 325.739 166.329 329.552 167.945C330.563 168.364 331.54 168.871 332.473 169.46L334.55 210.055L334.619 211.39H303.982Z" fill="#005792"/>
<path d="M320.605 160.456C329.142 160.456 336.062 153.116 336.062 144.06C336.062 135.005 329.142 127.664 320.605 127.664C312.068 127.664 305.147 135.005 305.147 144.06C305.147 153.116 312.068 160.456 320.605 160.456Z" fill="#E0AC69"/>
<path d="M333.147 154.058C334.296 152.773 335.058 151.155 335.338 149.41C335.618 147.664 335.401 145.87 334.717 144.255C334.032 142.64 332.91 141.277 331.494 140.341C330.077 139.404 328.43 138.935 326.762 138.994C324.624 139.07 322.61 139.998 320.57 140.679C317.479 141.795 314.18 142.11 310.951 141.598C307.701 141.063 304.77 139.226 302.759 136.467C300.846 133.679 300.25 129.812 301.601 126.676C303.161 123.055 306.804 121.06 310.232 119.439C311.614 118.705 313.09 118.191 314.613 117.912C315.377 117.778 316.158 117.812 316.908 118.012C317.658 118.213 318.361 118.576 318.973 119.078C319.936 119.956 320.5 121.277 321.548 122.039C322.728 122.896 324.261 122.873 325.684 123.025C328.889 123.365 331.92 124.732 334.375 126.945C336.83 129.157 338.591 132.11 339.425 135.41C340.259 138.71 340.126 142.202 339.044 145.42C337.962 148.638 335.982 151.431 333.367 153.426L333.147 154.058Z" fill="#2F2E41"/>
<path d="M313.686 175.148L311.383 168.365L311.239 167.943C311.171 167.742 311.061 167.561 310.917 167.412C310.773 167.264 310.599 167.152 310.408 167.085C310.217 167.018 310.015 166.999 309.816 167.027C309.617 167.056 309.426 167.132 309.259 167.251L306.644 169.1C306.644 169.1 289.872 169.1 288.525 179.774C288.506 179.941 288.481 180.128 288.462 180.328C288.461 180.337 288.459 180.346 288.456 180.355C288.286 181.056 285.12 194.034 282.401 210.055C282.326 210.496 282.25 210.943 282.175 211.391H318.621C319.807 195.296 319.143 180.332 313.686 175.148Z" fill="#2F2E41"/>
<path d="M357.162 210.055C355.174 193.62 352.329 180.328 352.329 180.328C352.304 180.128 352.279 179.941 352.259 179.774C350.919 169.1 334.147 169.1 334.147 169.1L331.533 167.251C331.366 167.133 331.176 167.057 330.976 167.028C330.777 167 330.574 167.019 330.384 167.086C330.193 167.153 330.019 167.265 329.875 167.414C329.731 167.563 329.62 167.744 329.552 167.945L327.104 175.148C321.648 180.332 320.984 195.296 322.17 211.39L357.32 211.39C357.269 210.943 357.213 210.496 357.162 210.055Z" fill="#2F2E41"/>
<path d="M61.9447 172.631L58.2064 210.055L58.0742 211.39H47.9606C48.0802 210.957 48.1997 210.509 48.3257 210.055C51.1956 199.614 55.1039 184.374 54.682 180.335C54.0213 174.033 58.6471 171.93 58.6471 171.93L58.9366 171.99L61.9447 172.631Z" fill="#005792"/>
<path d="M78.2555 161.08C86.7925 161.08 93.7131 153.739 93.7131 144.683C93.7131 135.628 86.7925 128.287 78.2555 128.287C69.7186 128.287 62.798 135.628 62.798 144.683C62.798 153.739 69.7186 161.08 78.2555 161.08Z" fill="#E0AC69"/>
<path d="M98.2647 203.446C97.4853 204.971 96.8467 206.571 96.3579 208.226C96.1754 208.814 95.9993 209.428 95.8355 210.055C95.716 210.489 95.609 210.937 95.5021 211.39H54.7323C54.7892 210.95 54.8393 210.503 54.8961 210.055C56.9793 192.598 58.6658 174.881 58.9365 171.99C58.9617 171.717 58.9743 171.576 58.9743 171.576C83.4057 157.918 101.235 175.782 101.235 175.782C101.235 175.782 101.261 175.909 101.298 176.156C101.689 178.653 103.677 193.232 98.2647 203.446Z" fill="#005792"/>
<path d="M96.3579 208.226L93.6392 202.044L94.2999 177.531L101.298 176.156L101.544 176.109C105.161 178.34 107.961 181.803 109.486 185.936C110.846 189.541 113.432 200.382 115.616 210.055C115.717 210.503 115.817 210.95 115.918 211.39H97.7487L97.1634 210.055L96.3579 208.226Z" fill="#005792"/>
<path d="M121.224 101.241H31.843C29.9258 101.243 28.0878 102.052 26.7322 103.49C25.3765 104.928 24.6139 106.878 24.6116 108.911V203.72C24.6139 205.754 25.3765 207.703 26.7322 209.141C28.0878 210.579 29.9258 211.388 31.843 211.39H121.224C123.141 211.389 124.98 210.581 126.336 209.142C127.692 207.704 128.454 205.754 128.455 203.72V108.911C128.454 106.877 127.692 104.927 126.336 103.489C124.98 102.051 123.141 101.242 121.224 101.241ZM127.196 203.72C127.195 205.4 126.565 207.01 125.446 208.198C124.326 209.386 122.807 210.054 121.224 210.055H31.843C30.2597 210.053 28.7419 209.385 27.6223 208.197C26.5027 207.009 25.8727 205.4 25.8703 203.72V108.911C25.8727 107.232 26.5027 105.622 27.6223 104.434C28.7419 103.247 30.2597 102.578 31.843 102.576H121.224C122.807 102.577 124.326 103.245 125.446 104.433C126.565 105.621 127.195 107.231 127.196 108.911V203.72ZM58.2064 210.055L58.0742 211.39H95.5021C95.609 210.937 95.7159 210.489 95.8355 210.055H58.2064Z" fill="#3F3D56"/>
<path d="M241.185 101.241H151.804C149.887 101.243 148.049 102.052 146.693 103.49C145.338 104.928 144.575 106.878 144.573 108.911V203.72C144.575 205.754 145.338 207.703 146.693 209.141C148.049 210.579 149.887 211.388 151.804 211.39H241.185C243.102 211.389 244.941 210.581 246.297 209.142C247.653 207.704 248.415 205.754 248.416 203.72V108.911C248.415 106.877 247.653 104.927 246.297 103.489C244.941 102.051 243.102 101.242 241.185 101.241ZM247.157 203.72C247.156 205.4 246.526 207.01 245.407 208.198C244.287 209.386 242.769 210.054 241.185 210.055H151.804C150.221 210.053 148.703 209.385 147.583 208.197C146.464 207.009 145.834 205.4 145.831 203.72V108.911C145.834 107.232 146.464 105.622 147.583 104.434C148.703 103.247 150.221 102.578 151.804 102.576H241.185C242.769 102.577 244.287 103.245 245.407 104.433C246.526 105.621 247.156 107.231 247.157 108.911V203.72ZM168.312 210.055C168.388 210.342 168.469 210.629 168.558 210.917L168.4 211.39H199.654C199.685 210.943 199.711 210.496 199.742 210.055H168.312Z" fill="#3F3D56"/>
<path d="M361.152 101.241H271.772C269.854 101.242 268.015 102.051 266.66 103.489C265.304 104.927 264.541 106.877 264.54 108.911V203.72C264.541 205.754 265.304 207.704 266.66 209.142C268.015 210.581 269.854 211.389 271.772 211.39H361.152C363.07 211.388 364.908 210.579 366.263 209.141C367.619 207.703 368.381 205.754 368.384 203.72V108.911C368.381 106.878 367.619 104.928 366.263 103.49C364.908 102.052 363.07 101.243 361.152 101.241ZM367.125 203.72C367.123 205.399 366.493 207.009 365.373 208.197C364.254 209.385 362.736 210.053 361.152 210.055H271.772C270.188 210.054 268.67 209.386 267.55 208.198C266.43 207.01 265.8 205.4 265.799 203.72V108.911C265.8 107.231 266.43 105.621 267.55 104.433C268.67 103.245 270.188 102.577 271.772 102.576H361.152C362.736 102.578 364.254 103.247 365.373 104.434C366.493 105.622 367.123 107.232 367.125 108.911V203.72ZM318.715 210.055C318.684 210.496 318.652 210.943 318.621 211.39H345.739C345.79 210.95 345.846 210.503 345.897 210.055H318.715Z" fill="#3F3D56"/>
<path d="M300.341 250.11H92.6542C91.3188 250.11 90.0382 249.547 89.094 248.546C88.1498 247.544 87.6193 246.186 87.6193 244.769C87.6193 243.353 88.1498 241.994 89.094 240.993C90.0382 239.991 91.3188 239.429 92.6542 239.429H300.341C301.676 239.429 302.957 239.991 303.901 240.993C304.845 241.994 305.376 243.353 305.376 244.769C305.376 246.186 304.845 247.544 303.901 248.546C302.957 249.547 301.676 250.11 300.341 250.11Z" fill="#005792"/>
<path d="M242.126 73.2026H150.869C149.534 73.2026 148.253 72.6399 147.309 71.6384C146.365 70.6368 145.835 69.2784 145.835 67.862C145.835 66.4456 146.365 65.0872 147.309 64.0856C148.253 63.0841 149.534 62.5214 150.869 62.5214H242.126C243.461 62.5214 244.742 63.0841 245.686 64.0856C246.63 65.0872 247.161 66.4456 247.161 67.862C247.161 69.2784 246.63 70.6368 245.686 71.6384C244.742 72.6399 243.461 73.2026 242.126 73.2026Z" fill="#005792"/>
<path d="M85.6492 158.969C86.1727 159.516 86.8647 159.845 87.5984 159.895C88.332 159.945 89.058 159.712 89.643 159.24C93.2861 156.375 96.4843 152.81 98.3771 148.461C100.546 143.477 100.788 137.362 98.1729 132.626C95.9624 128.622 92.0591 126.038 88.1688 123.917C86.6583 123.012 85.0312 122.347 83.3393 121.942C81.6292 121.542 79.8396 121.848 78.3349 122.799C77.5988 123.288 77.0189 124.002 76.6708 124.846C76.3227 125.691 76.2226 126.627 76.3835 127.532C74.5149 125.271 72.1215 123.566 69.4406 122.588C67.7524 121.888 65.9038 121.746 64.1381 122.181C61.6694 122.923 59.8671 125.25 58.8814 127.763C58.0842 129.675 57.8089 131.785 58.0868 133.855C58.2331 134.884 58.5815 135.87 59.1096 136.748C59.6376 137.626 60.3334 138.377 61.1522 138.951C63.1932 140.291 65.7972 140.194 68.1412 139.647C70.4853 139.1 72.7543 138.148 75.1437 137.907C77.5331 137.667 80.1938 138.299 81.648 140.324C82.6721 141.75 82.935 143.614 83.1649 145.39L84.3605 154.629C84.4583 155.965 84.7801 157.273 85.3108 158.489C85.4027 158.664 85.5166 158.826 85.6492 158.969Z" fill="#2F2E41"/>
</svg>
