<svg width="200" height="200" viewBox="0 0 200 200" fill="none" xmlns="http://www.w3.org/2000/svg">
<g clip-path="url(#clip0_114_290)">
<path d="M146.2 154.976C151.317 154.976 155.465 146.554 155.465 136.165C155.465 125.777 151.317 117.355 146.2 117.355C141.083 117.355 136.935 125.777 136.935 136.165C136.935 146.554 141.083 154.976 146.2 154.976Z" fill="#13334C"/>
<path d="M145.345 166.955C149.055 144.802 145.382 122.729 145.344 122.509L144.623 122.63C144.66 122.85 148.312 144.807 144.622 166.836L145.345 166.955Z" fill="#CACACA"/>
<path d="M138.043 132.121L137.698 132.763L146.076 137.222L146.421 136.58L138.043 132.121Z" fill="#CACACA"/>
<path d="M154.918 134.354L146.541 138.816L146.887 139.458L155.264 134.997L154.918 134.354Z" fill="#CACACA"/>
<path d="M168.461 143.186C178.469 143.186 186.582 126.714 186.582 106.395C186.582 86.0759 178.469 69.604 168.461 69.604C158.453 69.604 150.34 86.0759 150.34 106.395C150.34 126.714 158.453 143.186 168.461 143.186Z" fill="#E6E6E6"/>
<path d="M166.443 166.559C173.691 123.287 166.516 80.1731 166.442 79.7426L165.721 79.8643C165.794 80.2937 172.948 123.292 165.72 166.44L166.443 166.559Z" fill="#CACACA"/>
<path d="M152.342 98.7907L151.997 99.4332L168.383 108.155L168.729 107.512L152.342 98.7907Z" fill="#CACACA"/>
<path d="M185.677 103.16L169.293 111.886L169.638 112.528L186.023 103.802L185.677 103.16Z" fill="#CACACA"/>
<path d="M126.375 166.675H29.9879C29.6334 166.674 29.2935 166.534 29.0428 166.285C28.7922 166.035 28.6512 165.697 28.6508 165.344V104.741C28.6512 104.388 28.7922 104.05 29.0428 103.8C29.2935 103.551 29.6334 103.411 29.9879 103.41H126.375C126.729 103.411 127.069 103.551 127.32 103.8C127.571 104.05 127.712 104.388 127.712 104.741V165.344C127.712 165.697 127.571 166.035 127.32 166.285C127.069 166.534 126.729 166.674 126.375 166.675V166.675Z" fill="#E4E4E4"/>
<path d="M38.8519 110.754C38.7 110.754 38.5543 110.814 38.4469 110.921C38.3395 111.028 38.279 111.173 38.2789 111.324V158.761C38.279 158.912 38.3395 159.057 38.4469 159.164C38.5543 159.271 38.7 159.331 38.8519 159.331H117.511C117.663 159.331 117.808 159.271 117.916 159.164C118.023 159.057 118.084 158.912 118.084 158.761V111.324C118.084 111.173 118.023 111.028 117.916 110.921C117.808 110.814 117.663 110.754 117.511 110.754H38.8519Z" fill="white"/>
<path d="M118.275 122.972V119.966H107.151V110.564H104.13V119.966H84.3264V110.564H81.3056V119.966H50.7607V110.564H47.7397V119.966H37.1775V122.972H47.7397V134.662H37.1775V137.668H47.7397V150.193H37.1775V153.199H64.0192V159.521H67.0401V153.199H81.3056V159.521H84.3264V153.199H118.275V150.193H84.3264V137.668H118.275V134.662H107.151V122.972H118.275ZM81.3056 122.972V126.646H50.7607V122.972H81.3056ZM50.7607 129.652H81.3056V134.662H50.7607V129.652ZM50.7607 150.193V137.668H64.0192V150.193H50.7607ZM81.3056 150.193H67.0401V137.668H81.3056V150.193ZM104.13 134.662H84.3264V122.972H104.13V134.662Z" fill="#E6E6E6"/>
<path d="M82.816 140.386C84.9478 140.386 86.6761 138.666 86.6761 136.545C86.6761 134.424 84.9478 132.704 82.816 132.704C80.6841 132.704 78.9559 134.424 78.9559 136.545C78.9559 138.666 80.6841 140.386 82.816 140.386Z" fill="#005792"/>
<path d="M186.925 167H13V166.585H187L186.925 167Z" fill="#CACACA"/>
<path d="M83.2787 113.728C96.4294 113.728 107.09 103.12 107.09 90.0343C107.09 76.9487 96.4294 66.3408 83.2787 66.3408C70.128 66.3408 59.4672 76.9487 59.4672 90.0343C59.4672 103.12 70.128 113.728 83.2787 113.728Z" fill="#005792"/>
<path d="M83.5115 128.551L75.9888 115.764L68.4661 102.977L83.3564 102.888L98.2466 102.798L90.8791 115.674L83.5115 128.551Z" fill="#005792"/>
<path d="M83.4698 98.3861C88.188 98.3861 92.013 94.5802 92.013 89.8853C92.013 85.1904 88.188 81.3844 83.4698 81.3844C78.7515 81.3844 74.9266 85.1904 74.9266 89.8853C74.9266 94.5802 78.7515 98.3861 83.4698 98.3861Z" fill="white"/>
<path d="M82.7279 33.1217C82.7279 33.1217 77.6327 31.6936 76.1257 38.6201C74.6187 45.5466 75.5759 44.6739 75.5759 44.6739L86.9502 43.3529C86.9502 43.3529 90.3706 35.2283 82.7279 33.1217Z" fill="#13334C"/>
<path d="M75.318 63.5085C75.318 63.5085 67.6311 63.8626 68.9623 66.8649C69.0564 67.0772 69.144 67.276 69.2251 67.4615C70.1767 69.6361 71.2719 71.7457 72.5038 73.7762L77.2282 81.5653L78.9474 80.615L74.1095 68.1012L78.458 67.748L75.318 63.5085Z" fill="#E0AC69"/>
<path d="M95.5857 66.6883L98.0705 72.0749C98.0705 72.0749 99.9342 73.9293 101.975 81.3469C104.016 88.7645 104.46 88.4996 104.46 88.4996L102.443 89.1682L94.1658 74.1942L90.0835 69.0726L91.3259 66.3351L95.5857 66.6883Z" fill="#E0AC69"/>
<path d="M92.5684 60.507L96.139 67.1199C96.139 67.1199 104.234 82.9484 103.398 82.8958C102.457 82.8367 99.8155 83.9276 99.0043 84.9866C98.6128 85.4978 92.8917 73.0121 90.8823 70.2205L86.5338 66.8649C86.5338 66.8649 74.1871 68.9327 74.172 68.2603C74.1645 67.9309 78.2597 75.8332 77.4193 75.483C76.4619 75.0841 74.2097 77.0252 73.2169 76.6235C72.8072 76.4577 69.9127 69.4746 68.741 66.6131C68.594 66.2559 68.5864 65.857 68.7196 65.4944C68.8528 65.1319 69.1172 64.832 69.4611 64.6533C70.3417 64.1977 82.5768 61.4177 82.5768 61.4177L82.3628 60.3304L83.2502 58.5643L92.5684 60.507Z" fill="#13334C"/>
<path d="M85.2465 41.0131C85.5527 39.1356 84.2714 37.3667 82.3846 37.062C80.4978 36.7574 78.72 38.0324 78.4138 39.9098C78.1076 41.7873 79.389 43.5562 81.2758 43.8609C83.1626 44.1655 84.9403 42.8905 85.2465 41.0131Z" fill="#E0AC69"/>
<path d="M92.8917 61.0376C93.0828 61.6081 91.8451 61.9358 90.1199 61.6152C88.6272 61.3379 86.9934 61.0086 85.7048 60.7419C84.3249 60.4558 83.3389 60.2421 83.3389 60.2421C83.3389 60.2421 82.9839 62.4497 81.8303 62.1848C80.8363 61.957 77.8661 51.6332 77.0629 48.7801C77.0042 48.5718 77.0155 48.3501 77.0952 48.1487C77.1748 47.9474 77.3183 47.7775 77.504 47.6648L81.5836 45.1861C81.5836 45.1861 84.395 44.2253 85.42 44.1979C86.445 44.1706 88.2199 43.9057 88.2199 43.9057C88.2199 43.9057 90.261 44.0823 90.616 45.5834C90.971 47.0846 92.4522 55.9853 92.4796 58.1227C92.5097 60.4674 92.3186 59.3269 92.8917 61.0376Z" fill="#CACACA"/>
<path d="M83.1242 36.0379C83.1242 36.0379 81.689 39.8225 78.1726 41.3934L77.5985 38.0373L83.1242 36.0379Z" fill="#13334C"/>
<path d="M85.2026 40.0644C85.4721 40.0644 85.6907 39.6493 85.6907 39.1372C85.6907 38.6251 85.4721 38.21 85.2026 38.21C84.933 38.21 84.7145 38.6251 84.7145 39.1372C84.7145 39.6493 84.933 40.0644 85.2026 40.0644Z" fill="#E0AC69"/>
<path d="M80.3779 82.4484L73.5171 85.5869L73.4772 85.5006C73.1517 84.7959 73.1207 83.9913 73.3913 83.2639C73.6618 82.5365 74.2116 81.9458 74.9198 81.6218L74.92 81.6217L79.1103 79.7048L80.3779 82.4484Z" fill="#13334C"/>
<path d="M101.42 88.7187L105.628 86.8415L105.628 86.8414C106.34 86.5242 107.149 86.5011 107.877 86.7773C108.605 87.0534 109.194 87.6061 109.513 88.3139L109.552 88.4006L102.661 91.4741L101.42 88.7187Z" fill="#13334C"/>
<path opacity="0.2" d="M90.0264 52.8644L89.223 61.6573L90.6512 61.7244L90.0264 52.8644Z" fill="black"/>
<path d="M84.4259 69.2908C84.5961 69.1017 84.7226 68.8778 84.7965 68.6348C84.8703 68.3918 84.8897 68.1357 84.8533 67.8844C84.8169 67.6331 84.7256 67.3929 84.5857 67.1805C84.4459 66.9682 84.261 66.7889 84.044 66.6554L80.9574 51.1406L77.4128 52.49L81.5615 67.3162C81.3602 67.6938 81.3051 68.1317 81.4066 68.547C81.5081 68.9623 81.7592 69.3261 82.1123 69.5695C82.4653 69.8129 82.8959 69.919 83.3223 69.8676C83.7487 69.8163 84.1414 69.611 84.4259 69.2908Z" fill="#E0AC69"/>
<path d="M81.7383 53.7554L77.8463 54.4375C77.7355 54.4569 77.6219 54.4524 77.5131 54.4241C77.4043 54.3959 77.3029 54.3447 77.2157 54.2739C77.1286 54.2032 77.0579 54.1146 77.0083 54.0141C76.9587 53.9137 76.9314 53.8038 76.9283 53.692L76.8209 49.773C76.7243 49.2086 76.8565 48.6291 77.1886 48.1616C77.5207 47.6941 78.0256 47.3767 78.5925 47.2791C79.1594 47.1814 79.7421 47.3114 80.2128 47.6407C80.6835 47.9699 81.0038 48.4714 81.1034 49.0353L82.345 52.7427C82.3805 52.8488 82.3926 52.9614 82.3805 53.0726C82.3684 53.1838 82.3323 53.2912 82.2747 53.3873C82.2172 53.4834 82.1394 53.566 82.0469 53.6295C81.9543 53.6931 81.8491 53.736 81.7383 53.7554H81.7383Z" fill="#CACACA"/>
<path d="M87.4101 69.0179C87.6322 68.8931 87.8242 68.7213 87.9725 68.5147C88.1207 68.3081 88.2216 68.0717 88.2681 67.8221C88.3146 67.5725 88.3055 67.3157 88.2415 67.07C88.1775 66.8243 88.0601 66.5955 87.8976 66.3998L89.9737 50.7194L86.1815 50.8665L85.3332 66.2336C85.0208 66.527 84.8275 66.9242 84.7898 67.3499C84.7522 67.7757 84.8728 68.2004 85.1288 68.5436C85.3848 68.8868 85.7584 69.1247 86.1788 69.2121C86.5993 69.2995 87.0374 69.2304 87.4101 69.0179V69.0179Z" fill="#E0AC69"/>
<path d="M89.8708 53.4453L85.9644 52.8495C85.8533 52.8326 85.7471 52.792 85.6531 52.7305C85.5592 52.6691 85.4796 52.5882 85.4199 52.4934C85.3602 52.3986 85.3217 52.2921 85.3071 52.1811C85.2925 52.0702 85.3021 51.9574 85.3352 51.8505L86.4964 48.1041C86.5867 47.5387 86.8987 47.0321 87.3639 46.6952C87.8291 46.3584 88.4096 46.2188 88.9781 46.3072C89.5465 46.3956 90.0566 46.7047 90.3963 47.1667C90.7361 47.6287 90.8778 48.206 90.7905 48.7718L90.7718 52.6796C90.7712 52.7915 90.7464 52.9019 90.6991 53.0034C90.6517 53.1049 90.583 53.1951 90.4975 53.2677C90.412 53.3404 90.3117 53.3939 90.2036 53.4245C90.0954 53.4552 89.9819 53.4622 89.8708 53.4453V53.4453Z" fill="#CACACA"/>
</g>
<defs>
<clipPath id="clip0_114_290">
<rect width="174" height="134" fill="white" transform="translate(13 33)"/>
</clipPath>
</defs>
</svg>
