<svg width="200" height="200" viewBox="0 0 200 200" fill="none" xmlns="http://www.w3.org/2000/svg">
<g clip-path="url(#clip0_114_280)">
<path d="M153.91 143.133C151.379 150.546 148.124 157.943 143.954 164.983C143.861 165.142 143.768 165.297 143.673 165.455L133.35 162.189C133.41 162.04 133.475 161.873 133.544 161.69C137.708 150.922 162.829 85.3161 161.702 72.3809C161.823 73.4397 165.753 108.48 153.91 143.133Z" fill="#005792"/>
<path d="M145.945 165.613C145.805 165.757 145.661 165.899 145.516 166.038L137.772 163.588C137.877 163.462 137.999 163.312 138.139 163.144C140.432 160.343 147.251 151.957 153.909 143.133C161.065 133.651 168.037 123.665 169.014 119.561C168.817 120.494 162.707 148.899 145.945 165.613Z" fill="#005792"/>
<path d="M149.816 56.3761C149.814 56.3761 149.811 56.377 149.808 56.3771V39.7766C149.808 37.9793 149.094 36.2557 147.823 34.9848C146.552 33.714 144.829 33 143.031 33H91.0592C89.2619 33 87.5383 33.714 86.2674 34.9848C84.9966 36.2557 84.2826 37.9793 84.2826 39.7766V48.2868C84.1391 48.2899 84.0025 48.349 83.9021 48.4515C83.8017 48.5541 83.7454 48.6918 83.7452 48.8353V53.0506C83.7453 53.1941 83.8017 53.3318 83.9021 53.4343C84.0025 53.5368 84.1391 53.5959 84.2826 53.5989V58.0148H84.255C84.1829 58.0148 84.1114 58.029 84.0447 58.0566C83.978 58.0843 83.9174 58.1247 83.8664 58.1758C83.8153 58.2268 83.7748 58.2874 83.7472 58.3541C83.7196 58.4208 83.7054 58.4923 83.7054 58.5645V66.7157C83.7054 66.7879 83.7196 66.8594 83.7472 66.9261C83.7748 66.9927 83.8153 67.0533 83.8664 67.1044C83.9174 67.1554 83.978 67.1959 84.0447 67.2235C84.1114 67.2512 84.1829 67.2654 84.255 67.2654H84.2826V70.5028H84.274C84.2018 70.5028 84.1304 70.517 84.0637 70.5446C83.997 70.5722 83.9364 70.6127 83.8853 70.6638C83.8343 70.7148 83.7938 70.7754 83.7662 70.8421C83.7386 70.9088 83.7243 70.9803 83.7244 71.0525V79.2834C83.7243 79.3556 83.7386 79.4271 83.7662 79.4938C83.7938 79.5604 83.8343 79.621 83.8853 79.6721C83.9364 79.7231 83.997 79.7636 84.0637 79.7912C84.1304 79.8189 84.2018 79.8331 84.274 79.8331H84.2826V159.395C84.2826 161.192 84.9966 162.916 86.2674 164.187C87.5383 165.458 89.2619 166.172 91.0592 166.172H143.031C144.829 166.172 146.552 165.458 147.823 164.187C149.094 162.916 149.808 161.192 149.808 159.395V72.5183C149.811 72.5183 149.814 72.5192 149.816 72.5192C149.945 72.5192 150.072 72.4939 150.191 72.4447C150.31 72.3955 150.418 72.3234 150.509 72.2325C150.599 72.1416 150.672 72.0337 150.721 71.915C150.77 71.7962 150.795 71.6689 150.795 71.5404V57.355C150.795 57.0954 150.692 56.8464 150.509 56.6628C150.325 56.4793 150.076 56.3761 149.816 56.3761Z" fill="#13334C"/>
<path d="M145.762 41.6734V157.496C145.761 158.876 145.213 160.199 144.237 161.175C143.261 162.151 141.937 162.699 140.557 162.699H93.5332C92.1532 162.699 90.8298 162.151 89.8538 161.175C88.8778 160.199 88.3293 158.876 88.3288 157.496V41.6734C88.3288 40.2931 88.8771 38.9694 89.8531 37.9934C90.8292 37.0173 92.1529 36.469 93.5332 36.469H100.57V37.3823C100.57 38.5187 101.022 39.6084 101.826 40.412C102.629 41.2156 103.719 41.6672 104.855 41.6677H128.779C129.914 41.6652 131.002 41.2126 131.804 40.4092C132.605 39.6058 133.055 38.5172 133.055 37.3823V36.4785H140.557C141.936 36.4785 143.258 37.0255 144.234 37.9995C145.21 38.9735 145.759 40.2948 145.762 41.6734V41.6734Z" fill="white"/>
<path d="M69.5084 97.9902C69.2303 97.8825 68.932 97.8371 68.6345 97.8572C68.337 97.8773 68.0475 97.9624 67.7864 98.1064C67.5253 98.2505 67.299 98.4501 67.1234 98.6911C66.9478 98.9321 66.8271 99.2086 66.77 99.5013L50.0128 108.613L52.9591 111.929L68.5211 101.942C69.0192 102.005 69.5232 101.884 69.9376 101.6C70.3521 101.317 70.6482 100.892 70.7699 100.405C70.8916 99.9174 70.8304 99.4026 70.5979 98.9577C70.3654 98.5127 69.9778 98.1685 69.5084 97.9902H69.5084Z" fill="#E0AC69"/>
<path d="M65.2347 163.548L67.3228 162.197L63.107 153.5L60.0252 155.494L65.2347 163.548Z" fill="#E0AC69"/>
<path d="M72.6039 161.531L66.0414 165.776L64.4014 163.241L68.5232 160.574C69.1705 160.156 69.9576 160.011 70.7114 160.173C71.4652 160.335 72.1239 160.789 72.5426 161.436L72.6039 161.531L72.6039 161.531Z" fill="#13334C"/>
<path d="M41.8059 163.862H44.2927L45.4761 154.27H41.8059V163.862Z" fill="#E0AC69"/>
<path d="M49.0887 166.171H41.273V163.151H46.1819C46.5637 163.151 46.9417 163.226 47.2943 163.373C47.647 163.519 47.9674 163.733 48.2374 164.003C48.5073 164.273 48.7214 164.593 48.8675 164.946C49.0136 165.298 49.0887 165.676 49.0887 166.058V166.171V166.171Z" fill="#13334C"/>
<path d="M98.8608 51.796H93.7342C93.6083 51.796 93.4875 51.746 93.3985 51.657C93.3095 51.5679 93.2595 51.4472 93.2595 51.3213C93.2595 51.1954 93.3095 51.0747 93.3985 50.9856C93.4875 50.8966 93.6083 50.8466 93.7342 50.8466H98.8608C98.9867 50.8466 99.1074 50.8966 99.1964 50.9856C99.2854 51.0747 99.3354 51.1954 99.3354 51.3213C99.3354 51.4472 99.2854 51.5679 99.1964 51.657C99.1074 51.746 98.9867 51.796 98.8608 51.796V51.796Z" fill="#13334C"/>
<path d="M98.8608 53.1251H93.7342C93.6083 53.1251 93.4875 53.0751 93.3985 52.9861C93.3095 52.897 93.2595 52.7763 93.2595 52.6504C93.2595 52.5245 93.3095 52.4038 93.3985 52.3148C93.4875 52.2257 93.6083 52.1757 93.7342 52.1757H98.8608C98.9867 52.1757 99.1074 52.2257 99.1964 52.3148C99.2854 52.4038 99.3354 52.5245 99.3354 52.6504C99.3354 52.7763 99.2854 52.897 99.1964 52.9861C99.1074 53.0751 98.9867 53.1251 98.8608 53.1251V53.1251Z" fill="#13334C"/>
<path d="M98.8608 54.4542H93.7342C93.6083 54.4542 93.4875 54.4042 93.3985 54.3152C93.3095 54.2262 93.2595 54.1054 93.2595 53.9795C93.2595 53.8536 93.3095 53.7329 93.3985 53.6439C93.4875 53.5549 93.6083 53.5049 93.7342 53.5049H98.8608C98.9867 53.5049 99.1074 53.5549 99.1964 53.6439C99.2854 53.7329 99.3354 53.8536 99.3354 53.9795C99.3354 54.1054 99.2854 54.2262 99.1964 54.3152C99.1074 54.4042 98.9867 54.4542 98.8608 54.4542V54.4542Z" fill="#13334C"/>
<path d="M138.6 53.1346H138.427L138.36 53.0795C138.579 52.8194 138.698 52.4906 138.698 52.151C138.697 51.8717 138.613 51.599 138.456 51.3675C138.3 51.136 138.078 50.9562 137.819 50.8506C137.561 50.7451 137.276 50.7187 137.003 50.7747C136.729 50.8306 136.478 50.9665 136.282 51.1651C136.085 51.3638 135.952 51.6162 135.899 51.8905C135.846 52.1648 135.875 52.4487 135.984 52.7063C136.092 52.9638 136.274 53.1835 136.507 53.3374C136.74 53.4914 137.014 53.5728 137.293 53.5713C137.632 53.5689 137.959 53.4495 138.22 53.2333L138.284 53.2884V53.4631L139.374 54.5548L139.701 54.2283L138.6 53.1346ZM137.293 53.1346C137.099 53.1353 136.908 53.0784 136.746 52.9709C136.584 52.8635 136.457 52.7104 136.382 52.531C136.307 52.3515 136.287 52.1538 136.324 51.9629C136.361 51.772 136.454 51.5964 136.591 51.4583C136.728 51.3202 136.903 51.2258 137.094 51.1872C137.285 51.1485 137.482 51.1672 137.662 51.2409C137.842 51.3147 137.997 51.4401 138.105 51.6015C138.214 51.7628 138.272 51.9527 138.273 52.1472L138.273 52.151C138.274 52.2795 138.249 52.4068 138.201 52.5257C138.152 52.6446 138.081 52.7528 137.991 52.8441C137.9 52.9355 137.793 53.0081 137.675 53.058C137.556 53.1078 137.429 53.1338 137.301 53.1346C137.298 53.1346 137.296 53.1346 137.293 53.1346H137.293Z" fill="#13334C"/>
<path d="M109.305 69.2643H100.095C99.541 69.2643 99.0098 69.0443 98.6181 68.6526C98.2264 68.2609 98.0063 67.7297 98.0063 67.1757C98.0063 66.6218 98.2264 66.0906 98.6181 65.6989C99.0098 65.3072 99.541 65.0871 100.095 65.0871H109.305C109.859 65.0871 110.39 65.3072 110.782 65.6989C111.173 66.0906 111.393 66.6218 111.393 67.1757C111.393 67.7297 111.173 68.2609 110.782 68.6526C110.39 69.0443 109.859 69.2643 109.305 69.2643V69.2643Z" fill="#005792"/>
<path d="M137.5 73.8213H99.1456C98.8434 73.8213 98.5537 73.7013 98.34 73.4876C98.1264 73.274 98.0063 72.9842 98.0063 72.6821C98.0063 72.3799 98.1264 72.0901 98.34 71.8765C98.5537 71.6628 98.8434 71.5428 99.1456 71.5428H137.5C137.802 71.5428 138.092 71.6628 138.306 71.8765C138.519 72.0901 138.639 72.3799 138.639 72.6821C138.639 72.9842 138.519 73.274 138.306 73.4876C138.092 73.7013 137.802 73.8213 137.5 73.8213Z" fill="#005792"/>
<path d="M113.234 78.3783H99.1456C98.8434 78.3783 98.5537 78.2582 98.34 78.0446C98.1264 77.8309 98.0063 77.5412 98.0063 77.239C98.0063 76.9369 98.1264 76.6471 98.34 76.4335C98.5537 76.2198 98.8434 76.0998 99.1456 76.0998H113.234C113.536 76.0998 113.826 76.2198 114.04 76.4335C114.253 76.6471 114.373 76.9369 114.373 77.239C114.373 77.5412 114.253 77.8309 114.04 78.0446C113.826 78.2582 113.536 78.3783 113.234 78.3783Z" fill="#005792"/>
<path d="M109.305 119.771H100.095C99.541 119.771 99.0098 119.551 98.6181 119.159C98.2264 118.767 98.0063 118.236 98.0063 117.682C98.0063 117.128 98.2264 116.597 98.6181 116.205C99.0098 115.813 99.541 115.593 100.095 115.593H109.305C109.859 115.593 110.39 115.813 110.782 116.205C111.173 116.597 111.393 117.128 111.393 117.682C111.393 118.236 111.173 118.767 110.782 119.159C110.39 119.551 109.859 119.771 109.305 119.771V119.771Z" fill="#005792"/>
<path d="M137.5 124.328H99.1456C98.8434 124.328 98.5537 124.208 98.34 123.994C98.1264 123.78 98.0063 123.491 98.0063 123.188C98.0063 122.886 98.1264 122.596 98.34 122.383C98.5537 122.169 98.8434 122.049 99.1456 122.049H137.5C137.802 122.049 138.092 122.169 138.306 122.383C138.519 122.596 138.639 122.886 138.639 123.188C138.639 123.491 138.519 123.78 138.306 123.994C138.092 124.208 137.802 124.328 137.5 124.328V124.328Z" fill="#005792"/>
<path d="M113.234 128.885H99.1456C98.8434 128.885 98.5537 128.765 98.34 128.551C98.1264 128.337 98.0063 128.047 98.0063 127.745C98.0063 127.443 98.1264 127.153 98.34 126.94C98.5537 126.726 98.8434 126.606 99.1456 126.606H113.234C113.536 126.606 113.826 126.726 114.04 126.94C114.253 127.153 114.373 127.443 114.373 127.745C114.373 128.047 114.253 128.337 114.04 128.551C113.826 128.765 113.536 128.885 113.234 128.885V128.885Z" fill="#005792"/>
<path d="M109.305 143.125H100.095C99.541 143.125 99.0098 142.905 98.6181 142.513C98.2264 142.122 98.0063 141.59 98.0063 141.036C98.0063 140.483 98.2264 139.951 98.6181 139.56C99.0098 139.168 99.541 138.948 100.095 138.948H109.305C109.859 138.948 110.39 139.168 110.782 139.56C111.173 139.951 111.393 140.483 111.393 141.036C111.393 141.59 111.173 142.122 110.782 142.513C110.39 142.905 109.859 143.125 109.305 143.125V143.125Z" fill="#005792"/>
<path d="M137.5 147.682H99.1456C98.8434 147.682 98.5537 147.562 98.34 147.348C98.1264 147.135 98.0063 146.845 98.0063 146.543C98.0063 146.241 98.1264 145.951 98.34 145.737C98.5537 145.524 98.8434 145.404 99.1456 145.404H137.5C137.802 145.404 138.092 145.524 138.306 145.737C138.519 145.951 138.639 146.241 138.639 146.543C138.639 146.845 138.519 147.135 138.306 147.348C138.092 147.562 137.802 147.682 137.5 147.682V147.682Z" fill="#005792"/>
<path d="M113.234 152.239H99.1456C98.8434 152.239 98.5537 152.119 98.34 151.905C98.1264 151.692 98.0063 151.402 98.0063 151.1C98.0063 150.798 98.1264 150.508 98.34 150.294C98.5537 150.081 98.8434 149.961 99.1456 149.961H113.234C113.536 149.961 113.826 150.081 114.04 150.294C114.253 150.508 114.373 150.798 114.373 151.1C114.373 151.402 114.253 151.692 114.04 151.905C113.826 152.119 113.536 152.239 113.234 152.239V152.239Z" fill="#005792"/>
<path d="M142.911 107.904H69.6203C69.1924 107.903 68.7821 107.733 68.4796 107.43C68.177 107.128 68.0068 106.718 68.0063 106.29V86.353C68.0068 85.9251 68.177 85.5148 68.4796 85.2123C68.7821 84.9097 69.1924 84.7395 69.6203 84.739H142.911C143.339 84.7395 143.75 84.9097 144.052 85.2123C144.355 85.5148 144.525 85.9251 144.525 86.353V106.29C144.525 106.718 144.355 107.128 144.052 107.43C143.749 107.733 143.339 107.903 142.911 107.904V107.904Z" fill="#005792"/>
<path d="M43.2718 131.623C43.9725 136.538 40.2623 158.317 40.6744 158.315L46.0022 158.286C46.1921 157.922 48.6377 146.171 49.4047 144.285C50.4756 141.669 51.556 139.02 51.9775 136.225C52.3744 133.601 52.1788 130.928 51.9206 128.286C51.9326 128.208 51.9257 128.128 51.9006 128.052C51.8754 127.977 51.8327 127.908 51.776 127.853C51.7192 127.797 51.65 127.756 51.5742 127.732C51.4983 127.709 51.4179 127.703 51.3395 127.717L44.1908 127.349C42.7174 127.273 42.368 126.95 42.5921 128.397C42.7478 129.477 43.1161 130.529 43.2718 131.623Z" fill="#13334C"/>
<path d="M44.6769 119.67C43.2244 121.759 41.7016 124.162 42.1838 126.663C42.5503 128.562 43.9971 130.033 45.3623 131.41C50.8193 136.89 61.5794 161.068 61.5794 161.068C66.7722 157.745 61.4557 161.163 66.725 157.65C66.2579 157.614 55.6459 119.467 54.7668 119.416C51.2104 119.18 48.1421 118.833 44.6769 119.67Z" fill="#13334C"/>
<path d="M50.4222 99.7905C49.6844 99.1325 44.4996 97.1035 44.4996 97.1035C44.4043 97.0908 44.3075 97.0937 44.2131 97.112C43.9181 97.1865 43.7834 97.5532 43.8464 97.8497C43.9095 98.1462 43.3924 103.019 43.2592 105.235C43.0257 109.102 45.3031 117.862 45.2831 118.13C45.205 119.085 44.7867 119.981 44.1043 120.653C44.2816 120.874 55.547 121.315 56.3133 121.576C56.468 121.38 55.441 107.485 55.3937 106.7C55.3149 105.508 51.3961 100.693 50.4222 99.7905Z" fill="#005792"/>
<path d="M42.3872 129.94C42.6542 129.807 42.8888 129.617 43.0745 129.384C43.2602 129.151 43.3925 128.88 43.462 128.59C43.5315 128.3 43.5367 127.998 43.477 127.706C43.4173 127.414 43.2943 127.138 43.1167 126.899L47.8697 100.593L43.4343 100.535L40.1335 126.547C39.751 126.872 39.501 127.327 39.431 127.824C39.3609 128.321 39.4757 128.826 39.7535 129.245C40.0313 129.663 40.4528 129.965 40.9382 130.093C41.4237 130.221 41.9392 130.167 42.3872 129.94H42.3872Z" fill="#E0AC69"/>
<path d="M42.349 102.545C42.1641 102.559 41.9798 102.511 41.825 102.409C41.5611 102.183 43.7142 98.7251 44.1395 98.6738C45.5237 98.5143 46.9478 98.4612 48.2902 98.8352C49.6326 99.2093 50.8952 100.06 51.4952 101.319C51.7459 101.843 49.9288 104.48 49.1028 104.093C48.1136 103.63 43.6516 102.578 42.349 102.545Z" fill="#005792"/>
<path d="M47.2346 96.8201C49.9861 96.8201 52.2166 94.5895 52.2166 91.838C52.2166 89.0865 49.9861 86.856 47.2346 86.856C44.483 86.856 42.2525 89.0865 42.2525 91.838C42.2525 94.5895 44.483 96.8201 47.2346 96.8201Z" fill="#E0AC69"/>
<path d="M42.3411 100.075C43.0334 100.148 43.7329 100.045 44.3754 99.7777C45.018 99.51 45.5832 99.0854 46.0192 98.5428C46.4553 98.0002 46.7483 97.357 46.8715 96.6719C46.9947 95.9867 46.9442 95.2817 46.7245 94.6211C46.5262 94.0251 46.1948 93.4787 46.0132 92.8773C45.8317 92.276 45.8267 91.5649 46.2294 91.0828C47.0173 90.1395 48.536 90.7328 49.7507 90.5453C51.045 90.3455 52.0379 89.1037 52.1415 87.7982C52.2451 86.4926 51.5646 85.2007 50.5516 84.3706C49.5386 83.5406 48.2322 83.1319 46.9288 83.0038C45.255 82.8393 43.567 83.1086 42.0274 83.7856C40.4878 84.4627 39.1484 85.5247 38.1382 86.8695C37.1281 88.2143 36.4811 89.7964 36.2597 91.4637C36.0384 93.131 36.2499 94.8272 36.8741 96.389C37.4187 97.7514 38.3081 99.0204 39.5715 99.7665C40.8348 100.513 42.5033 100.656 43.7625 99.9028" fill="#13334C"/>
<path d="M95.6855 93.853H82.9538C82.1452 93.853 81.4874 92.916 81.4874 91.7643C81.4874 90.6127 82.1452 89.6757 82.9538 89.6757H95.6855C96.4941 89.6757 97.1519 90.6127 97.1519 91.7643C97.1519 92.916 96.4941 93.853 95.6855 93.853Z" fill="white"/>
<path d="M129.905 98.4099H82.6266C82.3244 98.4099 82.0347 98.2899 81.821 98.0762C81.6074 97.8626 81.4873 97.5728 81.4873 97.2707C81.4873 96.9685 81.6074 96.6787 81.821 96.4651C82.0347 96.2514 82.3244 96.1314 82.6266 96.1314H129.905C130.207 96.1314 130.497 96.2514 130.711 96.4651C130.924 96.6787 131.044 96.9685 131.044 97.2707C131.044 97.5728 130.924 97.8626 130.711 98.0762C130.497 98.2899 130.207 98.4099 129.905 98.4099V98.4099Z" fill="#005792"/>
<path d="M105.639 102.967H82.6266C82.3244 102.967 82.0347 102.847 81.821 102.633C81.6074 102.42 81.4873 102.13 81.4873 101.828C81.4873 101.525 81.6074 101.236 81.821 101.022C82.0347 100.808 82.3244 100.688 82.6266 100.688H105.639C105.941 100.688 106.231 100.808 106.445 101.022C106.658 101.236 106.779 101.525 106.779 101.828C106.779 102.13 106.658 102.42 106.445 102.633C106.231 102.847 105.941 102.967 105.639 102.967V102.967Z" fill="#005792"/>
<path d="M175 165.91H25V166.29H175V165.91Z" fill="#13334C"/>
</g>
<defs>
<clipPath id="clip0_114_280">
<rect width="150" height="133.29" fill="white" transform="translate(25 33)"/>
</clipPath>
</defs>
</svg>
