<svg width="200" height="200" viewBox="0 0 382 342" fill="none" xmlns="http://www.w3.org/2000/svg">
<g clip-path="url(#clip0_2_2)">
<path d="M284.235 268.047H165.793C163.902 268.044 162.089 267.223 160.752 265.762C159.415 264.301 158.663 262.321 158.661 260.255V167.226C158.663 165.16 159.415 163.179 160.752 161.719C162.089 160.258 163.902 159.436 165.793 159.434H284.235C286.126 159.436 287.939 160.258 289.276 161.719C290.613 163.179 291.365 165.16 291.368 167.226V260.255C291.365 262.321 290.613 264.301 289.276 265.762C287.939 267.223 286.126 268.044 284.235 268.047Z" fill="#E6E6E6"/>
<path d="M167.982 261.835H282.046C282.963 261.835 283.842 261.437 284.491 260.729C285.139 260.02 285.504 259.059 285.504 258.058V169.423C285.504 168.421 285.139 167.46 284.491 166.752C283.842 166.043 282.963 165.645 282.046 165.645H167.982C167.065 165.645 166.186 166.043 165.537 166.752C164.889 167.46 164.524 168.421 164.524 169.423V258.058C164.524 259.059 164.889 260.02 165.537 260.729C166.186 261.437 167.065 261.835 167.982 261.835Z" fill="white"/>
<path d="M125.574 143.154H7.13245C5.24146 143.151 3.42853 142.33 2.0914 140.869C0.754274 139.408 0.00213606 137.428 0 135.362V42.3329C0.00213491 40.2671 0.754274 38.2866 2.0914 36.8259C3.42853 35.3651 5.24146 34.5435 7.13245 34.5411H125.574C127.465 34.5435 129.278 35.3651 130.615 36.8259C131.952 38.2866 132.705 40.2671 132.707 42.3329V135.362C132.705 137.428 131.952 139.408 130.615 140.869C129.278 142.33 127.465 143.151 125.574 143.154Z" fill="#E6E6E6"/>
<path d="M9.32177 136.943H123.385C124.302 136.943 125.182 136.545 125.83 135.836C126.479 135.128 126.843 134.167 126.843 133.165V44.5301C126.843 43.5281 126.479 42.5672 125.83 41.8588C125.182 41.1503 124.302 40.7523 123.385 40.7523H9.32177C8.40461 40.7523 7.52501 41.1503 6.87648 41.8588C6.22795 42.5672 5.86362 43.5281 5.86362 44.5301V133.165C5.86362 134.167 6.22795 135.128 6.87648 135.836C7.52501 136.545 8.40461 136.943 9.32177 136.943Z" fill="white"/>
<path d="M268.449 193.186H195.59C195.248 193.186 194.91 193.259 194.594 193.402C194.279 193.545 193.992 193.754 193.75 194.018C193.508 194.282 193.317 194.595 193.186 194.94C193.055 195.285 192.988 195.655 192.988 196.028C192.988 196.402 193.055 196.771 193.186 197.116C193.317 197.461 193.508 197.774 193.75 198.038C193.992 198.302 194.279 198.512 194.594 198.654C194.91 198.797 195.248 198.871 195.59 198.871H268.449C269.14 198.871 269.801 198.571 270.289 198.038C270.777 197.505 271.052 196.782 271.052 196.028C271.052 195.274 270.777 194.551 270.289 194.018C269.801 193.485 269.14 193.186 268.449 193.186Z" fill="#E6E6E6"/>
<path d="M195.59 210.679C195.248 210.679 194.91 210.752 194.594 210.895C194.279 211.038 193.992 211.247 193.75 211.511C193.508 211.775 193.317 212.089 193.186 212.434C193.055 212.779 192.988 213.148 192.988 213.522C192.988 213.895 193.055 214.264 193.186 214.609C193.317 214.954 193.508 215.268 193.75 215.532C193.992 215.796 194.279 216.005 194.594 216.148C194.91 216.291 195.248 216.364 195.59 216.364H268.449C269.14 216.364 269.801 216.065 270.289 215.532C270.777 214.998 271.052 214.275 271.052 213.522C271.052 212.768 270.777 212.045 270.289 211.511C269.801 210.978 269.14 210.679 268.449 210.679H195.59Z" fill="#E6E6E6"/>
<path d="M195.59 228.172C194.9 228.172 194.238 228.472 193.75 229.005C193.262 229.538 192.988 230.261 192.988 231.015C192.988 231.769 193.262 232.492 193.75 233.025C194.238 233.558 194.9 233.858 195.59 233.858H268.449C269.14 233.858 269.801 233.558 270.289 233.025C270.777 232.492 271.052 231.769 271.052 231.015C271.052 230.261 270.777 229.538 270.289 229.005C269.801 228.472 269.14 228.172 268.449 228.172H195.59Z" fill="#E6E6E6"/>
<path d="M181.779 199.746C183.548 199.746 184.981 198.179 184.981 196.247C184.981 194.315 183.548 192.748 181.779 192.748C180.01 192.748 178.576 194.315 178.576 196.247C178.576 198.179 180.01 199.746 181.779 199.746Z" fill="#005792"/>
<path d="M181.779 217.239C183.548 217.239 184.981 215.672 184.981 213.74C184.981 211.808 183.548 210.242 181.779 210.242C180.01 210.242 178.576 211.808 178.576 213.74C178.576 215.672 180.01 217.239 181.779 217.239Z" fill="#E6E6E6"/>
<path d="M181.779 234.732C183.548 234.732 184.981 233.166 184.981 231.233C184.981 229.301 183.548 227.735 181.779 227.735C180.01 227.735 178.576 229.301 178.576 231.233C178.576 233.166 180.01 234.732 181.779 234.732Z" fill="#E6E6E6"/>
<path d="M239.426 196.028C239.426 196.402 239.358 196.771 239.228 197.116C239.097 197.461 238.905 197.774 238.664 198.038C238.422 198.302 238.135 198.512 237.819 198.654C237.504 198.797 237.165 198.871 236.824 198.871H195.684C195.041 198.881 194.417 198.637 193.925 198.184C193.434 197.731 193.109 197.1 193.01 196.406C192.962 196.004 192.992 195.596 193.1 195.209C193.207 194.821 193.389 194.463 193.633 194.158C193.877 193.853 194.178 193.609 194.515 193.441C194.853 193.273 195.219 193.186 195.59 193.186H236.824C237.514 193.186 238.176 193.485 238.664 194.018C239.152 194.551 239.426 195.274 239.426 196.028Z" fill="#005792"/>
<path d="M225.014 147.484C230.763 147.484 235.423 142.393 235.423 136.114C235.423 129.834 230.763 124.743 225.014 124.743C219.266 124.743 214.606 129.834 214.606 136.114C214.606 142.393 219.266 147.484 225.014 147.484Z" fill="#E6E6E6"/>
<path d="M230.151 137.024C230.611 133.925 228.685 131.005 225.848 130.502C223.011 129.999 220.337 132.104 219.877 135.203C219.417 138.302 221.343 141.223 224.18 141.726C227.017 142.229 229.691 140.124 230.151 137.024Z" fill="white"/>
<path d="M17.7537 86.1463C17.0697 86.1463 16.4138 86.4431 15.9302 86.9714C15.4466 87.4997 15.1749 88.2163 15.1749 88.9634C15.1749 89.7106 15.4466 90.4272 15.9302 90.9555C16.4138 91.4838 17.0697 91.7806 17.7537 91.7806H114.953C115.637 91.7806 116.293 91.4838 116.777 90.9555C117.26 90.4272 117.532 89.7106 117.532 88.9634C117.532 88.2163 117.26 87.4997 116.777 86.9714C116.293 86.4431 115.637 86.1463 114.953 86.1463H17.7537Z" fill="#E6E6E6"/>
<path d="M17.7537 103.483C17.0697 103.483 16.4138 103.779 15.9302 104.308C15.4466 104.836 15.1749 105.553 15.1749 106.3C15.1749 107.047 15.4466 107.763 15.9302 108.292C16.4138 108.82 17.0697 109.117 17.7537 109.117H114.953C115.637 109.117 116.293 108.82 116.777 108.292C117.26 107.763 117.532 107.047 117.532 106.3C117.532 105.553 117.26 104.836 116.777 104.308C116.293 103.779 115.637 103.483 114.953 103.483H17.7537Z" fill="#E6E6E6"/>
<path d="M61.1959 121.686C60.5119 121.686 59.856 121.982 59.3724 122.511C58.8888 123.039 58.6171 123.756 58.6171 124.503C58.6171 125.25 58.8888 125.967 59.3724 126.495C59.856 127.023 60.5119 127.32 61.1959 127.32H71.5109C72.1948 127.32 72.8507 127.023 73.3343 126.495C73.818 125.967 74.0897 125.25 74.0897 124.503C74.0897 123.756 73.818 123.039 73.3343 122.511C72.8507 121.982 72.1948 121.686 71.5109 121.686H61.1959Z" fill="#005792"/>
<path d="M52.5313 50.3749C52.3209 50.3751 52.1192 50.4665 51.9704 50.629C51.8217 50.7915 51.738 51.0118 51.7378 51.2417V73.2457C51.738 73.4755 51.8217 73.6959 51.9704 73.8584C52.1192 74.0209 52.3209 74.1123 52.5313 74.1125H80.1755C80.3859 74.1123 80.5875 74.0209 80.7363 73.8584C80.8851 73.6959 80.9687 73.4755 80.9689 73.2457V51.2417C80.9687 51.0118 80.8851 50.7915 80.7363 50.629C80.5875 50.4665 80.3859 50.3751 80.1755 50.3748L52.5313 50.3749Z" fill="#005792"/>
<path d="M66.3534 64.5776C68.7636 64.5776 70.7174 62.4431 70.7174 59.8101C70.7174 57.1771 68.7636 55.0426 66.3534 55.0426C63.9432 55.0426 61.9893 57.1771 61.9893 59.8101C61.9893 62.4431 63.9432 64.5776 66.3534 64.5776Z" fill="white"/>
<path d="M73.4946 71.9455C73.4961 72.699 73.3329 73.4419 73.0185 74.1125H59.6883C59.3486 73.3857 59.1854 72.5758 59.2143 71.7603C59.2433 70.9448 59.4634 70.1511 59.8536 69.4551C60.2437 68.7592 60.791 68.1844 61.4428 67.7856C62.0946 67.3869 62.8292 67.1777 63.5762 67.178H69.1305C70.2873 67.1773 71.3969 67.6786 72.2153 68.5717C73.0338 69.4648 73.4939 70.6764 73.4946 71.9401V71.9455Z" fill="white"/>
<path d="M66.3534 64.5776C68.7636 64.5776 70.7174 62.4431 70.7174 59.8101C70.7174 57.1771 68.7636 55.0426 66.3534 55.0426C63.9432 55.0426 61.9893 57.1771 61.9893 59.8101C61.9893 62.4431 63.9432 64.5776 66.3534 64.5776Z" fill="white"/>
<path d="M73.4946 71.9455C73.4961 72.699 73.3329 73.4419 73.0185 74.1125H59.6883C59.3486 73.3857 59.1854 72.5758 59.2143 71.7603C59.2433 70.9448 59.4634 70.1511 59.8536 69.4551C60.2437 68.7592 60.791 68.1844 61.4428 67.7856C62.0946 67.3869 62.8292 67.1777 63.5762 67.178H69.1305C70.2873 67.1773 71.3969 67.6786 72.2153 68.5717C73.0338 69.4648 73.4939 70.6764 73.4946 71.9401V71.9455Z" fill="white"/>
<path d="M66.3534 22.5371C72.0502 22.5371 76.6684 17.492 76.6684 11.2686C76.6684 5.04511 72.0502 0 66.3534 0C60.6565 0 56.0383 5.04511 56.0383 11.2686C56.0383 17.492 60.6565 22.5371 66.3534 22.5371Z" fill="#E6E6E6"/>
<path d="M66.3534 16.9028C69.2018 16.9028 71.5109 14.3803 71.5109 11.2686C71.5109 8.15683 69.2018 5.63428 66.3534 5.63428C63.505 5.63428 61.1959 8.15683 61.1959 11.2686C61.1959 14.3803 63.505 16.9028 66.3534 16.9028Z" fill="#005792"/>
<path d="M323.389 335.868L318.447 335.867L316.097 315.044L323.391 315.045L323.389 335.868Z" fill="#FFB8B8"/>
<path d="M314.917 334.325H324.448V340.881H308.917C308.917 340.02 309.072 339.167 309.373 338.372C309.675 337.576 310.117 336.854 310.674 336.245C311.231 335.636 311.893 335.153 312.621 334.824C313.349 334.495 314.129 334.325 314.917 334.325Z" fill="#2F2E41"/>
<path d="M350.026 335.868L345.084 335.867L342.734 315.044L350.028 315.045L350.026 335.868Z" fill="#FFB8B8"/>
<path d="M341.554 334.325H351.085V340.881H335.554C335.554 340.02 335.709 339.167 336.01 338.372C336.312 337.576 336.754 336.854 337.311 336.245C337.868 335.636 338.53 335.153 339.258 334.824C339.986 334.495 340.766 334.325 341.554 334.325Z" fill="#2F2E41"/>
<path d="M335.553 187.836C341.417 187.836 346.17 182.643 346.17 176.238C346.17 169.832 341.417 164.639 335.553 164.639C329.69 164.639 324.936 169.832 324.936 176.238C324.936 182.643 329.69 187.836 335.553 187.836Z" fill="#E0AC69"/>
<path d="M299.25 251.878C299.324 251.236 299.527 250.619 299.842 250.072C300.158 249.524 300.58 249.059 301.079 248.709C301.577 248.358 302.14 248.132 302.727 248.045C303.314 247.958 303.912 248.012 304.477 248.205L310.411 240.435L315.613 243.222L307.092 254.066C306.733 255.083 306.045 255.921 305.159 256.421C304.272 256.92 303.248 257.047 302.282 256.778C301.315 256.508 300.473 255.86 299.914 254.957C299.355 254.054 299.119 252.959 299.25 251.878Z" fill="#FFB8B8"/>
<path d="M350.316 259.737C350.063 259.152 349.931 258.513 349.928 257.865C349.926 257.218 350.054 256.578 350.302 255.99C350.551 255.403 350.914 254.882 351.367 254.464C351.82 254.046 352.351 253.742 352.923 253.573L354.114 243.538L359.873 242.842L358.008 256.987C358.205 258.056 358.035 259.166 357.533 260.107C357.03 261.049 356.228 261.756 355.28 262.095C354.332 262.434 353.303 262.381 352.388 261.946C351.473 261.512 350.736 260.726 350.316 259.737Z" fill="#FFB8B8"/>
<path d="M344.426 198.145C344.991 197.353 345.737 196.738 346.588 196.361C347.44 195.985 348.368 195.86 349.278 196.001C350.187 196.141 351.047 196.541 351.77 197.161C352.493 197.78 353.054 198.597 353.396 199.529L362.098 223.253C362.987 225.678 363.271 228.317 362.92 230.901L360.085 251.753C360.048 252.022 359.959 252.28 359.823 252.508C359.687 252.735 359.508 252.929 359.297 253.074C359.087 253.219 358.85 253.312 358.603 253.348C358.356 253.384 358.105 253.361 357.867 253.282L354.133 252.029C353.746 251.899 353.413 251.625 353.192 251.255C352.971 250.885 352.876 250.442 352.923 250.003C354.241 237.726 352.499 225.289 347.881 214.004L343.779 203.98C343.392 203.035 343.248 201.992 343.362 200.964C343.476 199.936 343.844 198.962 344.426 198.145Z" fill="#005792"/>
<path d="M338.138 187.836C339.736 187.873 341.323 187.541 342.795 186.861C344.267 186.181 345.591 185.168 346.679 183.89C347.768 182.611 348.596 181.095 349.11 179.442C349.623 177.788 349.811 176.035 349.66 174.297C349.509 172.558 349.024 170.875 348.235 169.356C347.446 167.838 346.372 166.519 345.083 165.486C343.795 164.453 342.32 163.73 340.758 163.364C339.195 162.998 337.579 162.997 336.016 163.362C333.681 161.814 330.967 160.772 328.246 161.037C325.525 161.302 322.835 163.066 321.817 165.835C320.8 168.605 321.893 172.255 324.423 173.38C326.044 174.102 327.876 173.752 329.607 173.461C331.337 173.17 333.225 172.98 334.732 173.956C336.238 174.931 336.915 177.547 335.566 178.767C334.851 179.439 334.34 180.333 334.102 181.331C333.864 182.328 333.91 183.381 334.233 184.349C334.911 186.264 336.761 187.803 338.138 187.836Z" fill="#2F2E41"/>
<path d="M351.311 251.42L353.194 329.498C353.201 329.758 353.157 330.017 353.068 330.258C352.978 330.5 352.844 330.718 352.673 330.9C352.503 331.082 352.3 331.223 352.077 331.315C351.854 331.407 351.616 331.447 351.378 331.434L345.174 331.088C344.778 331.066 344.401 330.896 344.106 330.607C343.811 330.317 343.616 329.926 343.554 329.498L336.175 278.786C336.143 278.569 336.043 278.371 335.892 278.226C335.742 278.081 335.549 277.997 335.348 277.991C335.147 277.984 334.95 278.054 334.791 278.188C334.632 278.323 334.521 278.514 334.477 278.729L324.489 327.555C324.435 327.816 324.332 328.062 324.185 328.276C324.038 328.49 323.851 328.668 323.637 328.797C323.423 328.926 323.186 329.004 322.942 329.026C322.698 329.048 322.453 329.013 322.222 328.923L316.065 328.512C315.709 328.374 315.404 328.112 315.197 327.766C314.99 327.421 314.892 327.01 314.919 326.598L320.294 250.681L351.311 251.42Z" fill="#2F2E41"/>
<path d="M354.333 214.335C355.372 202.504 347.409 191.802 336.556 190.96C331.88 190.597 324.62 190.467 322.227 197.163C315.017 217.334 327.638 216.844 323.29 234.319C318.941 251.795 315.101 252.797 321.067 254.059C327.033 255.321 353.862 262.77 352.76 250.47C352.083 242.909 353.297 226.138 354.333 214.335Z" fill="#005792"/>
<path d="M323.503 195.112C324.36 194.749 325.289 194.64 326.197 194.795C327.105 194.951 327.959 195.365 328.673 195.996C329.388 196.627 329.937 197.453 330.266 198.391C330.595 199.328 330.692 200.343 330.547 201.335L327.158 224.47C326.578 228.426 325.047 232.142 322.721 235.24L311.715 249.89C311.557 250.1 311.36 250.271 311.136 250.39C310.912 250.509 310.667 250.574 310.418 250.58C310.169 250.586 309.922 250.534 309.694 250.426C309.465 250.318 309.26 250.158 309.094 249.956L306.48 246.784C306.209 246.456 306.052 246.034 306.037 245.593C306.021 245.151 306.148 244.717 306.395 244.367L307.165 243.276C313.567 234.199 317.606 223.402 318.855 212.024L320.202 199.754C320.315 198.725 320.682 197.75 321.264 196.933C321.845 196.115 322.619 195.485 323.503 195.112Z" fill="#005792"/>
<path d="M381.568 342H270.042C269.928 342 269.818 341.95 269.737 341.862C269.656 341.773 269.61 341.653 269.61 341.528C269.61 341.402 269.656 341.282 269.737 341.194C269.818 341.105 269.928 341.056 270.042 341.056H381.568C381.682 341.056 381.792 341.105 381.873 341.194C381.955 341.282 382 341.402 382 341.528C382 341.653 381.955 341.773 381.873 341.862C381.792 341.95 381.682 342 381.568 342Z" fill="#CCCCCC"/>
</g>
<defs>
<clipPath id="clip0_2_2">
<rect width="382" height="342" fill="white"/>
</clipPath>
</defs>
</svg>


