<svg width="200" height="200" viewBox="0 0 200 200" fill="none" xmlns="http://www.w3.org/2000/svg">
<g clip-path="url(#clip0_114_293)">
<path d="M124.718 127.576H73.7787C69.4969 127.576 66.0135 124.104 66.0135 119.835V69.0519C66.0135 64.7832 69.4969 61.3105 73.7787 61.3105H124.718C129 61.3105 132.483 64.7832 132.483 69.0519V119.835C132.483 124.104 129 127.576 124.718 127.576V127.576ZM73.7787 62.5491C70.1763 62.5491 67.256 65.4605 67.256 69.0519V119.835C67.256 123.426 70.1763 126.338 73.7787 126.338H109.46C121.489 126.338 131.241 116.616 131.241 104.624V69.0519C131.241 65.4605 128.32 62.5491 124.718 62.5491H73.7787V62.5491Z" fill="#F2F2F2"/>
<path d="M79.2704 67.8301C76.8595 67.8301 74.8982 69.7853 74.8982 72.1889V79.0114C74.8982 81.4149 76.8595 83.3702 79.2704 83.3702H86.1138C88.5248 83.3702 90.4861 81.4149 90.4861 79.0114V72.1889C90.4861 69.7853 88.5248 67.8301 86.1138 67.8301H79.2704Z" fill="#F2F2F2"/>
<path d="M79.2704 87.0363C76.8595 87.0363 74.8982 88.9915 74.8982 91.3951V98.2176C74.8982 100.621 76.8595 102.576 79.2704 102.576H86.1138C88.5248 102.576 90.4861 100.621 90.4861 98.2176V91.3951C90.4861 88.9915 88.5248 87.0363 86.1138 87.0363H79.2704V87.0363Z" fill="#F2F2F2"/>
<path d="M79.2704 106.242C76.8595 106.242 74.8982 108.198 74.8982 110.601V117.424C74.8982 119.827 76.8595 121.783 79.2704 121.783H86.1138C88.5248 121.783 90.4861 119.827 90.4861 117.424V110.601C90.4861 108.198 88.5248 106.242 86.1138 106.242H79.2704Z" fill="#F2F2F2"/>
<path d="M83.8085 51.1847C80.7707 51.1847 78.2994 53.6484 78.2994 56.6769V65.2735C78.2994 68.302 80.7707 70.7657 83.8085 70.7657H92.4315C95.4693 70.7657 97.9406 68.302 97.9406 65.2735V56.6769C97.9406 53.6484 95.4693 51.1847 92.4315 51.1847H83.8085V51.1847Z" fill="#13334C"/>
<path d="M112.197 75.2085C109.16 75.2085 106.688 77.6722 106.688 80.7007V89.2972C106.688 92.3257 109.16 94.7894 112.197 94.7894H120.82C123.858 94.7894 126.33 92.3257 126.33 89.2972V80.7007C126.33 77.6722 123.858 75.2085 120.82 75.2085H112.197Z" fill="#13334C"/>
<path d="M99.8555 161.736L98.1037 161.721L97.3282 154.828L99.9137 154.85L99.8555 161.736Z" fill="#E0AC69"/>
<path d="M94.2443 164.513C94.2405 164.943 94.5881 165.297 95.0208 165.301L98.5037 165.33L99.1134 164.098L99.3374 165.336L100.652 165.348L100.32 160.931L99.8625 160.9L97.9976 160.772L97.3959 160.732L97.3853 161.982L94.5875 163.874C94.3746 164.018 94.2464 164.257 94.2443 164.513H94.2443Z" fill="#13334C"/>
<path d="M108.768 161.736L107.017 161.721L106.241 154.828L108.827 154.85L108.768 161.736Z" fill="#E0AC69"/>
<path d="M103.157 164.513C103.153 164.943 103.501 165.297 103.934 165.301L107.417 165.33L108.026 164.098L108.25 165.336L109.564 165.348L109.233 160.931L108.775 160.9L106.91 160.772L106.309 160.732L106.298 161.982L103.5 163.874C103.287 164.018 103.159 164.257 103.157 164.513V164.513Z" fill="#13334C"/>
<path d="M92.9812 106.005L100.082 106.228L106.809 107.719C106.809 107.719 106.136 108.538 108.379 110.774C108.379 110.774 111.368 115.99 109.276 121.057L108.379 141.325C108.379 141.325 110.994 155.613 108.996 160.161L106.355 160.325L101.886 141.49L99.7083 121.206L98.6619 141.176C98.6619 141.176 102.665 154.884 100.137 160.325L97.2771 160.161L92.3833 141.176C92.3833 141.176 90.2904 119.269 90.5894 115.096C90.8884 110.923 92.9813 106.005 92.9813 106.005H92.9812Z" fill="#13334C"/>
<path d="M116.827 73.9777C115.857 74.2283 115.273 75.2159 115.525 76.1837C115.64 76.6271 115.911 76.9878 116.264 77.2261L116.264 77.2286L116.126 80.5538L118.678 81.7314L118.882 76.6145L118.864 76.615C119.086 76.2219 119.162 75.7471 119.04 75.2762C118.789 74.3085 117.798 73.7272 116.827 73.9777V73.9777Z" fill="#E0AC69"/>
<path d="M102.562 85.8451C102.025 85.3153 101.714 84.5969 101.703 83.8157C101.687 82.7678 102.214 81.8166 103.112 81.2714C104.146 80.6436 105.439 80.7071 106.406 81.4331L114.421 87.4494L115.849 78.7824L118.916 79.7665L118.184 91.052C118.133 91.8414 117.685 92.5369 116.987 92.9123C116.288 93.2877 115.46 93.2783 114.77 92.8871L103.187 86.3173C102.954 86.1853 102.745 86.0262 102.562 85.8451V85.8451Z" fill="#005792"/>
<path d="M90.3402 69.1299C90.8526 69.9892 90.5692 71.0998 89.7073 71.6106C89.3124 71.8447 88.8649 71.9104 88.4462 71.8322L88.4445 71.834L86.194 74.292L83.5498 73.3367L87.0188 69.56L87.031 69.5728C87.1514 69.1384 87.4325 68.7474 87.8518 68.4989C88.7138 67.9881 89.8278 68.2706 90.3402 69.1299V69.1299Z" fill="#E0AC69"/>
<path d="M91.3122 87.4668L78.4469 84.0022C77.6809 83.7959 77.0858 83.221 76.8549 82.4641C76.624 81.7073 76.7974 80.8993 77.3185 80.3028L84.769 71.7749L87.6414 73.2282L82.5348 80.3854L92.4755 81.7388C93.675 81.9021 94.6382 82.7646 94.9291 83.9363C95.1818 84.9537 94.8842 85.9989 94.133 86.7321C93.573 87.2787 92.8448 87.5705 92.0898 87.5704C91.8319 87.5704 91.5707 87.5364 91.3122 87.4668H91.3122Z" fill="#005792"/>
<path d="M109.654 108.987L91.6634 109.809C91.1693 109.061 91.3032 107.937 91.9951 106.528C94.6078 101.21 92.6236 91.1491 91.2888 85.9104C90.9143 84.4405 91.9196 82.9793 93.4333 82.8284L95.1295 82.6593L96.6975 77.8874H102.189L104.467 80.4822L108.334 82.8238C107.63 90.0506 104.631 100.256 108.903 105.373C109.838 106.492 110.102 107.703 109.654 108.987V108.987Z" fill="#005792"/>
<path d="M98.7448 77.9976C101.699 77.9976 104.094 75.6102 104.094 72.6651C104.094 69.72 101.699 67.3325 98.7448 67.3325C95.7907 67.3325 93.3959 69.72 93.3959 72.6651C93.3959 75.6102 95.7907 77.9976 98.7448 77.9976Z" fill="#E0AC69"/>
<path d="M104.798 69.2517C105.542 66.5468 97.4307 64.2272 95.8545 66.4055C95.6354 66.0958 94.8254 65.9077 94.4537 66.0027C94.0821 66.0977 93.7695 66.3352 93.4646 66.5651C93.0453 66.8862 92.6108 67.2187 92.3535 67.6804C92.0943 68.1402 92.0543 68.7672 92.403 69.1662C92.6794 69.4835 93.165 71.1696 93.5805 71.2532C93.8701 71.3121 94.1141 71.3596 94.3237 71.3938C94.5105 71.1221 94.9868 70.7808 94.9525 70.4521C95.2346 70.6383 95.1315 70.9659 95.0746 71.3007C94.8853 72.4156 90.6189 81.046 93.0625 78.5028C93.3045 78.6453 93.6037 78.7783 93.9487 78.8999C94.5338 78.0202 95.014 76.9828 95.3304 75.8979L95.3327 75.918C95.4416 76.8608 96.1327 77.6344 97.0471 77.8985C100.715 78.9578 103.682 77.4034 104.703 74.6001C104.329 73.8439 104.166 73.9261 104.2 73.9036C104.666 73.5902 105.307 73.7952 105.508 74.3191C105.567 74.4735 105.62 74.6054 105.667 74.7046C106.199 72.8084 106.831 73.0821 104.798 69.2517H104.798Z" fill="#13334C"/>
<path d="M102.267 67.2892L101.892 65.3796C101.861 65.2191 101.831 65.0449 101.904 64.8982C101.997 64.7098 102.237 64.6317 102.445 64.6617C102.654 64.6917 102.81 64.8817 103.018 64.9183C103.739 65.0455 104.693 64.3348 104.952 66.1328C105.06 66.8824 106.26 66.9616 106.66 67.6049C107.061 68.2483 107.11 69.1769 106.564 69.7025C106.127 70.1223 105.425 70.1708 104.858 69.9563C104.291 69.7419 103.836 69.3088 103.438 68.852C103.04 68.3952 102.68 67.901 102.221 67.5051" fill="#13334C"/>
<path d="M105.083 70.1937C103.62 69.9898 102.622 69.4592 102.118 68.6165C101.459 67.5134 101.9 66.2989 101.919 66.2477L102.229 66.3624C102.225 66.3735 101.824 67.4853 102.403 68.4508C102.854 69.2019 103.771 69.6787 105.129 69.8678L105.083 70.1937V70.1937Z" fill="#13334C"/>
<path d="M111.952 49.5602C107.649 49.5602 104.148 46.0698 104.148 41.7801C104.148 37.4904 107.649 34 111.952 34C116.255 34 119.756 37.4904 119.756 41.7801C119.756 46.0698 116.255 49.5602 111.952 49.5602ZM111.952 37.112C109.37 37.112 107.269 39.206 107.269 41.7801C107.269 44.3542 109.37 46.4481 111.952 46.4481C114.534 46.4481 116.634 44.3542 116.634 41.7801C116.634 39.206 114.534 37.112 111.952 37.112V37.112Z" fill="#13334C"/>
<path d="M123.959 54.8474C123.576 54.8474 123.193 54.7084 122.892 54.4265L115.567 47.5832C114.938 46.9959 114.906 46.0113 115.496 45.3844C116.084 44.7553 117.072 44.7242 117.701 45.313L125.026 52.1563C125.655 52.7436 125.687 53.7283 125.097 54.3551C124.79 54.6826 124.375 54.8474 123.959 54.8474V54.8474Z" fill="#13334C"/>
<path d="M29 165.695C29 165.864 29.1361 165.999 29.3057 165.999H170.658C170.828 165.999 170.964 165.864 170.964 165.695C170.964 165.526 170.828 165.391 170.658 165.391H29.3057C29.1361 165.391 29 165.526 29 165.695Z" fill="#CCCCCC"/>
</g>
<defs>
<clipPath id="clip0_114_293">
<rect width="142" height="132" fill="white" transform="translate(29 34)"/>
</clipPath>
</defs>
</svg>
