<svg width="255" height="255" viewBox="0 0 255 133" fill="none" xmlns="http://www.w3.org/2000/svg">
<g clip-path="url(#clip0_312_144)">
<path d="M117.754 126.16C117.377 126.16 117.007 126.072 116.68 125.904L54.5551 94.1932C54.0501 93.9347 53.6793 93.506 53.524 93.001C53.3687 92.496 53.4416 91.956 53.7267 91.4995L102.658 13.3608C102.799 13.1347 102.989 12.9361 103.215 12.7762C103.442 12.6163 103.701 12.4982 103.978 12.4288C104.255 12.3593 104.544 12.3398 104.83 12.3714C105.115 12.403 105.391 12.4851 105.641 12.6129L167.766 44.3232C168.271 44.5816 168.641 45.0104 168.797 45.5153C168.952 46.0203 168.879 46.5603 168.594 47.0168L119.663 125.155C119.522 125.382 119.333 125.581 119.106 125.741C118.88 125.901 118.62 126.019 118.343 126.088C118.151 126.136 117.953 126.16 117.754 126.16Z" fill="#E6E6E6"/>
<path d="M100.925 16.4221L100.675 16.8207L166.332 50.3342L166.582 49.9355L100.925 16.4221Z" fill="white"/>
<path d="M96.4313 23.5981L96.1817 23.9967L161.839 57.5102L162.088 57.1115L96.4313 23.5981Z" fill="white"/>
<path d="M91.9377 30.7741L91.688 31.1727L157.345 64.6861L157.595 64.2875L91.9377 30.7741Z" fill="white"/>
<path d="M87.444 37.9501L87.1944 38.3487L152.851 71.8622L153.101 71.4635L87.444 37.9501Z" fill="white"/>
<path d="M82.9504 45.1261L82.7007 45.5247L148.358 79.0382L148.607 78.6395L82.9504 45.1261Z" fill="white"/>
<path d="M78.4567 52.3021L78.2071 52.7007L143.864 86.2141L144.114 85.8155L78.4567 52.3021Z" fill="white"/>
<path d="M73.9631 59.478L73.7134 59.8767L139.37 93.3901L139.62 92.9915L73.9631 59.478Z" fill="white"/>
<path d="M69.4694 66.654L69.2198 67.0527L134.877 100.566L135.126 100.167L69.4694 66.654Z" fill="white"/>
<path d="M64.9758 73.83L64.7261 74.2287L130.383 107.742L130.633 107.343L64.9758 73.83Z" fill="white"/>
<path d="M60.4821 81.006L60.2325 81.4047L125.889 114.918L126.139 114.519L60.4821 81.006Z" fill="white"/>
<path d="M55.9884 88.182L55.7388 88.5807L121.396 122.094L121.645 121.695L55.9884 88.182Z" fill="white"/>
<path d="M111.975 114.276C111.598 114.275 111.228 114.187 110.9 114.019L48.7759 82.3086C48.271 82.0501 47.9002 81.6213 47.7449 81.1163C47.5896 80.6114 47.6625 80.0714 47.9476 79.6148L96.8786 1.47614C97.02 1.25012 97.2094 1.05147 97.4359 0.891556C97.6624 0.731637 97.9216 0.613578 98.1987 0.544125C98.4757 0.474673 98.7652 0.455187 99.0506 0.486781C99.3361 0.518374 99.6118 0.60043 99.862 0.728257L161.986 32.4386C162.491 32.697 162.862 33.1257 163.018 33.6307C163.173 34.1357 163.1 34.6756 162.815 35.1322L113.884 113.271C113.743 113.497 113.554 113.696 113.327 113.856C113.101 114.016 112.841 114.134 112.564 114.203C112.372 114.251 112.174 114.276 111.975 114.276Z" fill="#F2F2F2"/>
<path d="M95.1459 4.53745L94.8962 4.93611L160.553 38.4495L160.803 38.0509L95.1459 4.53745Z" fill="white"/>
<path d="M90.6522 11.7134L90.4026 12.1121L156.06 45.6255L156.309 45.2269L90.6522 11.7134Z" fill="white"/>
<path d="M86.1585 18.8894L85.9089 19.2881L151.566 52.8015L151.816 52.4029L86.1585 18.8894Z" fill="white"/>
<path d="M81.6649 26.0654L81.4153 26.4641L147.072 59.9775L147.322 59.5789L81.6649 26.0654Z" fill="white"/>
<path d="M77.1712 33.2414L76.9216 33.6401L142.579 67.1535L142.828 66.7549L77.1712 33.2414Z" fill="white"/>
<path d="M72.6776 40.4174L72.4279 40.8161L138.085 74.3295L138.335 73.9309L72.6776 40.4174Z" fill="white"/>
<path d="M68.1839 47.5934L67.9343 47.9921L133.591 81.5055L133.841 81.1069L68.1839 47.5934Z" fill="white"/>
<path d="M63.6903 54.7694L63.4406 55.1681L129.098 88.6815L129.347 88.2829L63.6903 54.7694Z" fill="white"/>
<path d="M59.1966 61.9454L58.947 62.3441L124.604 95.8575L124.854 95.4588L59.1966 61.9454Z" fill="white"/>
<path d="M54.703 69.1214L54.4533 69.5201L120.11 103.033L120.36 102.635L54.703 69.1214Z" fill="white"/>
<path d="M50.2093 76.2974L49.9597 76.6961L115.617 110.21L115.866 109.811L50.2093 76.2974Z" fill="white"/>
<path d="M105.784 0H6.49945V124.644H105.784C106.141 124.644 106.483 124.516 106.735 124.288C106.987 124.06 107.129 123.751 107.129 123.429V1.21406C107.129 0.892073 106.987 0.583278 106.735 0.3556C106.483 0.127921 106.141 6.91872e-06 105.784 0ZM12.1024 121.204C11.6148 121.204 11.1382 121.073 10.7328 120.829C10.3273 120.584 10.0114 120.236 9.82477 119.83C9.63817 119.423 9.58935 118.975 9.68448 118.544C9.7796 118.112 10.0144 117.715 10.3592 117.404C10.704 117.093 11.1432 116.881 11.6215 116.795C12.0997 116.709 12.5954 116.753 13.0459 116.922C13.4963 117.09 13.8814 117.375 14.1523 117.741C14.4231 118.107 14.5677 118.538 14.5677 118.978C14.5677 119.27 14.504 119.56 14.3801 119.83C14.2562 120.1 14.0746 120.345 13.8457 120.552C13.6167 120.758 13.345 120.922 13.0459 121.034C12.7468 121.146 12.4262 121.204 12.1024 121.204ZM12.1024 109.872C11.6148 109.872 11.1382 109.742 10.7328 109.497C10.3274 109.253 10.0114 108.905 9.82477 108.498C9.63818 108.092 9.58936 107.644 9.68448 107.212C9.77961 106.781 10.0144 106.384 10.3592 106.073C10.704 105.762 11.1432 105.55 11.6215 105.464C12.0997 105.378 12.5954 105.422 13.0459 105.59C13.4963 105.759 13.8814 106.044 14.1523 106.41C14.4231 106.776 14.5677 107.206 14.5677 107.647C14.5677 107.939 14.504 108.228 14.3801 108.498C14.2562 108.768 14.0746 109.014 13.8457 109.221C13.6167 109.427 13.345 109.591 13.0459 109.703C12.7468 109.815 12.4262 109.872 12.1024 109.872ZM12.1024 98.5412C11.6148 98.5412 11.1382 98.4107 10.7328 98.1661C10.3274 97.9215 10.0114 97.5739 9.82477 97.1672C9.63818 96.7605 9.58936 96.313 9.68448 95.8812C9.77961 95.4495 10.0144 95.0529 10.3592 94.7416C10.704 94.4303 11.1432 94.2183 11.6215 94.1324C12.0997 94.0466 12.5954 94.0906 13.0459 94.2591C13.4963 94.4276 13.8814 94.7129 14.1523 95.0789C14.4231 95.4449 14.5677 95.8752 14.5677 96.3155C14.5677 96.6078 14.504 96.8972 14.3801 97.1672C14.2562 97.4373 14.0746 97.6826 13.8457 97.8893C13.6167 98.096 13.345 98.2599 13.0459 98.3718C12.7468 98.4837 12.4262 98.5412 12.1024 98.5412ZM12.1024 87.21C11.6148 87.21 11.1382 87.0795 10.7328 86.8349C10.3274 86.5903 10.0114 86.2427 9.82477 85.836C9.63818 85.4293 9.58936 84.9818 9.68448 84.55C9.77961 84.1182 10.0144 83.7216 10.3592 83.4104C10.704 83.0991 11.1432 82.8871 11.6215 82.8012C12.0997 82.7153 12.5954 82.7594 13.0459 82.9279C13.4963 83.0963 13.8814 83.3816 14.1523 83.7476C14.4231 84.1137 14.5677 84.544 14.5677 84.9842C14.5677 85.2765 14.504 85.5659 14.3801 85.836C14.2562 86.106 14.0746 86.3514 13.8457 86.5581C13.6167 86.7648 13.345 86.9287 13.0459 87.0406C12.7468 87.1524 12.4262 87.21 12.1024 87.21ZM12.1024 75.8788C11.6148 75.8788 11.1382 75.7482 10.7328 75.5037C10.3274 75.2591 10.0114 74.9115 9.82477 74.5048C9.63818 74.0981 9.58936 73.6505 9.68448 73.2188C9.77961 72.787 10.0144 72.3904 10.3592 72.0791C10.704 71.7678 11.1432 71.5559 11.6215 71.47C12.0997 71.3841 12.5954 71.4282 13.0459 71.5966C13.4963 71.7651 13.8814 72.0504 14.1523 72.4164C14.4231 72.7824 14.5677 73.2128 14.5677 73.653C14.5677 73.9453 14.504 74.2347 14.3801 74.5048C14.2562 74.7748 14.0746 75.0202 13.8457 75.2269C13.6167 75.4335 13.345 75.5975 13.0459 75.7093C12.7468 75.8212 12.4262 75.8788 12.1024 75.8788ZM12.1024 64.5475C11.6148 64.5475 11.1382 64.417 10.7328 64.1724C10.3274 63.9279 10.0114 63.5802 9.82477 63.1735C9.63818 62.7668 9.58936 62.3193 9.68448 61.8875C9.77961 61.4558 10.0144 61.0592 10.3592 60.7479C10.704 60.4366 11.1432 60.2246 11.6215 60.1387C12.0997 60.0529 12.5954 60.097 13.0459 60.2654C13.4963 60.4339 13.8814 60.7192 14.1523 61.0852C14.4231 61.4512 14.5677 61.8815 14.5677 62.3218C14.5677 62.6141 14.504 62.9035 14.3801 63.1735C14.2562 63.4436 14.0746 63.6889 13.8457 63.8956C13.6167 64.1023 13.345 64.2663 13.0459 64.3781C12.7468 64.49 12.4262 64.5475 12.1024 64.5475ZM12.1024 53.2163C11.6148 53.2163 11.1382 53.0858 10.7328 52.8412C10.3274 52.5966 10.0114 52.249 9.82477 51.8423C9.63818 51.4356 9.58936 50.9881 9.68448 50.5563C9.77961 50.1245 10.0144 49.728 10.3592 49.4167C10.704 49.1054 11.1432 48.8934 11.6215 48.8075C12.0997 48.7216 12.5954 48.7657 13.0459 48.9342C13.4963 49.1026 13.8814 49.3879 14.1523 49.754C14.4231 50.12 14.5677 50.5503 14.5677 50.9905C14.5677 51.2828 14.504 51.5723 14.3801 51.8423C14.2562 52.1123 14.0746 52.3577 13.8457 52.5644C13.6167 52.7711 13.345 52.935 13.0459 53.0469C12.7468 53.1587 12.4262 53.2163 12.1024 53.2163ZM12.1024 41.8851C11.6148 41.8851 11.1382 41.7545 10.7328 41.51C10.3274 41.2654 10.0114 40.9178 9.82477 40.5111C9.63818 40.1044 9.58936 39.6568 9.68448 39.2251C9.77961 38.7933 10.0144 38.3967 10.3592 38.0854C10.704 37.7742 11.1432 37.5622 11.6215 37.4763C12.0997 37.3904 12.5954 37.4345 13.0459 37.603C13.4963 37.7714 13.8814 38.0567 14.1523 38.4227C14.4231 38.7888 14.5677 39.2191 14.5677 39.6593C14.5677 39.9516 14.504 40.241 14.3801 40.5111C14.2562 40.7811 14.0746 41.0265 13.8457 41.2332C13.6167 41.4399 13.345 41.6038 13.0459 41.7157C12.7468 41.8275 12.4262 41.8851 12.1024 41.8851ZM12.1024 30.5539C11.6148 30.5539 11.1382 30.4233 10.7328 30.1787C10.3274 29.9342 10.0114 29.5866 9.82477 29.1798C9.63818 28.7731 9.58936 28.3256 9.68448 27.8938C9.77961 27.4621 10.0144 27.0655 10.3592 26.7542C10.704 26.4429 11.1432 26.231 11.6215 26.1451C12.0997 26.0592 12.5954 26.1033 13.0459 26.2717C13.4963 26.4402 13.8814 26.7255 14.1523 27.0915C14.4231 27.4575 14.5677 27.8879 14.5677 28.3281C14.5677 28.6204 14.504 28.9098 14.3801 29.1798C14.2562 29.4499 14.0746 29.6953 13.8457 29.9019C13.6167 30.1086 13.345 30.2726 13.0459 30.3844C12.7468 30.4963 12.4262 30.5539 12.1024 30.5539ZM12.1024 19.2226C11.6148 19.2226 11.1382 19.0921 10.7328 18.8475C10.3273 18.6029 10.0114 18.2553 9.82477 17.8486C9.63817 17.4419 9.58935 16.9944 9.68448 16.5626C9.7796 16.1309 10.0144 15.7343 10.3592 15.423C10.704 15.1117 11.1432 14.8997 11.6215 14.8138C12.0997 14.7279 12.5954 14.772 13.0459 14.9405C13.4963 15.109 13.8814 15.3942 14.1523 15.7603C14.4231 16.1263 14.5677 16.5566 14.5677 16.9968C14.5677 17.2891 14.504 17.5786 14.3801 17.8486C14.2562 18.1187 14.0746 18.364 13.8457 18.5707C13.6167 18.7774 13.345 18.9413 13.0459 19.0532C12.7468 19.1651 12.4262 19.2226 12.1024 19.2226ZM12.1024 7.89139C11.6148 7.89139 11.1382 7.76085 10.7328 7.51628C10.3273 7.27171 10.0114 6.9241 9.82477 6.51739C9.63817 6.11068 9.58935 5.66315 9.68448 5.23139C9.7796 4.79963 10.0144 4.40304 10.3592 4.09175C10.704 3.78047 11.1432 3.56849 11.6215 3.4826C12.0997 3.39672 12.5954 3.4408 13.0459 3.60926C13.4963 3.77773 13.8814 4.06301 14.1523 4.42904C14.4231 4.79507 14.5677 5.2254 14.5677 5.66561C14.5677 5.95791 14.504 6.24734 14.3801 6.51738C14.2562 6.78743 14.0746 7.0328 13.8457 7.23948C13.6167 7.44616 13.345 7.61011 13.0459 7.72197C12.7468 7.83382 12.4262 7.89139 12.1024 7.89139Z" fill="#13334C"/>
<path d="M6.49945 6.87968C5.83421 6.87968 0 6.85132 0 5.86797C0 4.88461 5.83421 4.85625 6.49945 4.85625V5.26093C3.06317 5.26093 0.835027 5.60822 0.476197 5.86797C0.835027 6.12771 3.06317 6.47499 6.49945 6.47499C9.92807 6.47499 12.1539 6.12918 12.5202 5.86975C12.3459 5.7586 11.6338 5.52563 9.72357 5.37654L9.76215 4.97343C12.9989 5.22596 12.9989 5.6924 12.9989 5.86797C12.9989 6.85132 7.16469 6.87968 6.49945 6.87968Z" fill="#2F2E41"/>
<path d="M6.49945 18.0086C5.83421 18.0086 0 17.9802 0 16.9968C0 16.0135 5.83421 15.9851 6.49945 15.9851V16.3898C3.06317 16.3898 0.835027 16.7371 0.476197 16.9969C0.835027 17.2566 3.06317 17.6039 6.49945 17.6039C9.92807 17.6039 12.1539 17.2581 12.5202 16.9986C12.3459 16.8875 11.6338 16.6545 9.72357 16.5054L9.76215 16.1023C12.9989 16.3549 12.9989 16.8213 12.9989 16.9969C12.9989 17.9802 7.16469 18.0086 6.49945 18.0086Z" fill="#2F2E41"/>
<path d="M6.49945 29.3398C5.83421 29.3398 0 29.3114 0 28.3281C0 27.3447 5.83421 27.3164 6.49945 27.3164V27.721C3.06317 27.721 0.835027 28.0683 0.476197 28.3281C0.835027 28.5878 3.06317 28.9351 6.49945 28.9351C9.92807 28.9351 12.1539 28.5893 12.5202 28.3299C12.3459 28.2187 11.6338 27.9857 9.72357 27.8366L9.76215 27.4335C12.9989 27.6861 12.9989 28.1525 12.9989 28.3281C12.9989 29.3114 7.16469 29.3398 6.49945 29.3398Z" fill="#2F2E41"/>
<path d="M6.49945 40.671C5.83421 40.671 0 40.6427 0 39.6593C0 38.6759 5.83421 38.6476 6.49945 38.6476V39.0523C3.06317 39.0523 0.835027 39.3996 0.476197 39.6593C0.835027 39.919 3.06317 40.2663 6.49945 40.2663C9.92807 40.2663 12.1539 39.9205 12.5202 39.6611C12.3459 39.5499 11.6338 39.317 9.72357 39.1679L9.76215 38.7648C12.9989 39.0173 12.9989 39.4837 12.9989 39.6593C12.9989 40.6427 7.16469 40.671 6.49945 40.671Z" fill="#2F2E41"/>
<path d="M6.49945 52.0022C5.83421 52.0022 0 51.9739 0 50.9905C0 50.0072 5.83421 49.9788 6.49945 49.9788V50.3835C3.06317 50.3835 0.835027 50.7308 0.476197 50.9905C0.835027 51.2503 3.06317 51.5976 6.49945 51.5976C9.92807 51.5976 12.1539 51.2517 12.5202 50.9923C12.3459 50.8812 11.6338 50.6482 9.72357 50.4991L9.76215 50.096C12.9989 50.3485 12.9989 50.815 12.9989 50.9905C12.9989 51.9739 7.16469 52.0022 6.49945 52.0022Z" fill="#2F2E41"/>
<path d="M6.49945 63.3335C5.83421 63.3335 0 63.3051 0 62.3218C0 61.3384 5.83421 61.31 6.49945 61.31V61.7147C3.06317 61.7147 0.835027 62.062 0.476197 62.3218C0.835027 62.5815 3.06317 62.9288 6.49945 62.9288C9.92807 62.9288 12.1539 62.583 12.5202 62.3235C12.3459 62.2124 11.6338 61.9794 9.72357 61.8303L9.76215 61.4272C12.9989 61.6798 12.9989 62.1462 12.9989 62.3218C12.9989 63.3051 7.16469 63.3335 6.49945 63.3335Z" fill="#2F2E41"/>
<path d="M6.49945 74.6647C5.83421 74.6647 0 74.6363 0 73.653C0 72.6696 5.83421 72.6413 6.49945 72.6413V73.046C3.06317 73.046 0.835027 73.3932 0.476197 73.653C0.835027 73.9127 3.06317 74.26 6.49945 74.26C9.92807 74.26 12.1539 73.9142 12.5202 73.6548C12.3459 73.5436 11.6338 73.3106 9.72357 73.1616L9.76215 72.7585C12.9989 73.011 12.9989 73.4774 12.9989 73.653C12.9989 74.6363 7.16469 74.6647 6.49945 74.6647Z" fill="#2F2E41"/>
<path d="M6.49945 85.9959C5.83421 85.9959 0 85.9676 0 84.9842C0 84.0009 5.83421 83.9725 6.49945 83.9725V84.3772C3.06317 84.3772 0.835027 84.7245 0.476197 84.9842C0.835027 85.244 3.06317 85.5913 6.49945 85.5913C9.92807 85.5913 12.1539 85.2454 12.5202 84.986C12.3459 84.8749 11.6338 84.6419 9.72357 84.4928L9.76215 84.0897C12.9989 84.3422 12.9989 84.8087 12.9989 84.9842C12.9989 85.9676 7.16469 85.9959 6.49945 85.9959Z" fill="#2F2E41"/>
<path d="M6.49945 97.3272C5.83421 97.3272 0 97.2988 0 96.3155C0 95.3321 5.83421 95.3037 6.49945 95.3037V95.7084C3.06317 95.7084 0.835027 96.0557 0.476197 96.3155C0.835027 96.5752 3.06317 96.9225 6.49945 96.9225C9.92807 96.9225 12.1539 96.5767 12.5202 96.3172C12.3459 96.2061 11.6338 95.9731 9.72357 95.824L9.76215 95.4209C12.9989 95.6734 12.9989 96.1399 12.9989 96.3155C12.9989 97.2988 7.16469 97.3272 6.49945 97.3272Z" fill="#2F2E41"/>
<path d="M6.49945 108.658C5.83421 108.658 0 108.63 0 107.647C0 106.663 5.83421 106.635 6.49945 106.635V107.04C3.06317 107.04 0.835027 107.387 0.476197 107.647C0.835027 107.906 3.06317 108.254 6.49945 108.254C9.92807 108.254 12.1539 107.908 12.5202 107.648C12.3459 107.537 11.6338 107.304 9.72357 107.155L9.76215 106.752C12.9989 107.005 12.9989 107.471 12.9989 107.647C12.9989 108.63 7.16469 108.658 6.49945 108.658Z" fill="#2F2E41"/>
<path d="M6.49945 119.99C5.83421 119.99 0 119.961 0 118.978C0 117.995 5.83421 117.966 6.49945 117.966V118.371C3.06317 118.371 0.835027 118.718 0.476197 118.978C0.835027 119.238 3.06317 119.585 6.49945 119.585C9.92807 119.585 12.1539 119.239 12.5202 118.98C12.3459 118.869 11.6338 118.636 9.72357 118.486L9.76215 118.083C12.9989 118.336 12.9989 118.802 12.9989 118.978C12.9989 119.961 7.16469 119.99 6.49945 119.99Z" fill="#2F2E41"/>
<path d="M85.5014 47.6519H36.1952C35.809 47.6515 35.4387 47.5128 35.1656 47.2662C34.8925 47.0196 34.7389 46.6853 34.7384 46.3366V28.9351C34.7389 28.5864 34.8925 28.2521 35.1656 28.0055C35.4387 27.759 35.809 27.6203 36.1952 27.6199H85.5014C85.8876 27.6203 86.2579 27.759 86.531 28.0055C86.8041 28.2521 86.9577 28.5864 86.9582 28.9351V46.3366C86.9577 46.6853 86.8041 47.0196 86.531 47.2662C86.2579 47.5128 85.8876 47.6515 85.5014 47.6519Z" fill="#F2F2F2"/>
<path d="M67.1236 33.589H54.573C54.2758 33.589 53.9908 33.4824 53.7806 33.2927C53.5705 33.1029 53.4524 32.8456 53.4524 32.5773C53.4524 32.309 53.5705 32.0516 53.7806 31.8619C53.9908 31.6722 54.2758 31.5656 54.573 31.5656H67.1237C67.4209 31.5656 67.7059 31.6722 67.916 31.8619C68.1262 32.0516 68.2443 32.309 68.2443 32.5773C68.2443 32.8456 68.1262 33.1029 67.916 33.2927C67.7059 33.4824 67.4208 33.589 67.1236 33.589Z" fill="#FD5F00"/>
<path d="M74.0713 38.6476H47.6253C47.3281 38.6476 47.0431 38.541 46.8329 38.3513C46.6228 38.1615 46.5047 37.9042 46.5047 37.6359C46.5047 37.3675 46.6228 37.1102 46.8329 36.9205C47.0431 36.7307 47.3281 36.6241 47.6253 36.6241H74.0713C74.3685 36.6241 74.6536 36.7307 74.8637 36.9205C75.0739 37.1102 75.1919 37.3675 75.1919 37.6359C75.1919 37.9042 75.0739 38.1615 74.8637 38.3513C74.6536 38.541 74.3685 38.6476 74.0713 38.6476Z" fill="#FD5F00"/>
<path d="M74.0713 43.7062H47.6253C47.3281 43.7062 47.0431 43.5996 46.8329 43.4098C46.6228 43.2201 46.5047 42.9628 46.5047 42.6944C46.5047 42.4261 46.6228 42.1688 46.8329 41.9791C47.0431 41.7893 47.3281 41.6827 47.6253 41.6827H74.0713C74.3685 41.6827 74.6536 41.7893 74.8637 41.9791C75.0739 42.1688 75.1919 42.4261 75.1919 42.6944C75.1919 42.9628 75.0739 43.2201 74.8637 43.4098C74.6536 43.5996 74.3685 43.7062 74.0713 43.7062Z" fill="#FD5F00"/>
<path d="M202.151 42.0106C202.851 42.0107 203.537 41.8323 204.13 41.4957C204.723 41.1592 205.198 40.6784 205.502 40.1086C205.805 39.5388 205.924 38.9032 205.845 38.2751C205.765 37.6469 205.491 37.0518 205.054 36.5582C203.223 34.4925 199.215 34.8089 197.611 32.5945C196.252 30.718 197.507 28.141 199.317 26.6058C202.86 23.6003 208.531 22.8617 212.87 24.8408C217.209 26.8198 219.915 31.3795 219.338 35.7374C219.118 37.3973 218.608 39.4118 220.035 40.4772C221.301 41.4228 223.173 40.8861 224.763 40.5137C227.122 39.9769 229.582 39.9071 231.974 40.3091C234.366 40.7111 236.633 41.5754 238.62 42.8428C241.999 45.0291 244.462 48.5602 244.463 52.3133C244.465 56.0665 241.633 59.8486 237.582 60.6889C233.611 61.5126 229.517 59.51 226.708 56.8451C223.898 54.1802 221.969 50.8657 219.409 48.0036C216.849 45.1416 213.306 42.6207 209.232 42.5544C206.871 42.516 204.287 43.266 202.283 42.1382" fill="#13334C"/>
<path d="M203.902 43.5051C208.257 43.5051 211.788 40.3176 211.788 36.3856C211.788 32.4536 208.257 29.2661 203.902 29.2661C199.547 29.2661 196.017 32.4536 196.017 36.3856C196.017 40.3176 199.547 43.5051 203.902 43.5051Z" fill="#E0AC69"/>
<path d="M187.128 83.6149C186.989 83.2077 186.95 82.7779 187.015 82.3558C187.08 81.9337 187.247 81.5296 187.503 81.1719C187.76 80.8142 188.1 80.5117 188.5 80.2855C188.9 80.0594 189.35 79.9153 189.819 79.8632L192.227 69.7356L196.405 73.5763L193.477 82.6048C193.522 83.3211 193.274 84.0273 192.78 84.5897C192.287 85.152 191.582 85.5314 190.799 85.6559C190.017 85.7804 189.211 85.6414 188.534 85.2652C187.857 84.8891 187.357 84.3019 187.128 83.6149Z" fill="#E0AC69"/>
<path d="M227.632 127.603L223.764 128.258L212.101 93.674L220.379 92.7067L227.632 127.603Z" fill="#E0AC69"/>
<path d="M220.792 127.729L228.253 126.465L229.134 130.706L216.976 132.766C216.86 132.209 216.867 131.637 216.996 131.082C217.125 130.528 217.374 130.001 217.728 129.534C218.083 129.066 218.536 128.666 219.061 128.356C219.587 128.046 220.175 127.833 220.792 127.729Z" fill="#13334C"/>
<path d="M202.281 129.465L198.345 129.465L197.756 97.4382L206.134 97.4385L202.281 129.465Z" fill="#E0AC69"/>
<path d="M195.533 128.45H203.124V132.765H190.753C190.753 132.198 190.877 131.637 191.117 131.114C191.357 130.59 191.709 130.114 192.153 129.714C192.597 129.313 193.124 128.995 193.704 128.778C194.284 128.561 194.905 128.45 195.533 128.45Z" fill="#13334C"/>
<path d="M195.945 101.797L196.306 86.1448C196.279 85.9246 193.435 62.2113 192.376 56.1521C191.299 49.9949 196.863 46.8378 196.919 46.8066C197.168 46.7145 197.393 46.6365 197.618 46.5616C200.25 45.6625 203.11 45.4539 205.867 45.9598C208.625 46.4658 211.168 47.6656 213.202 49.4208C215.309 51.1756 216.832 53.426 217.6 55.919C218.368 58.4121 218.351 61.0491 217.551 63.5339L215.588 69.6687C225.643 86.0811 227.707 93.1438 227.726 93.2132L227.732 93.2344L227.731 93.2565C227.371 99.7655 197.396 101.707 196.12 101.786L195.945 101.797Z" fill="#005792"/>
<path d="M193.607 53.2245L186.814 77.4329L198.969 78.724L193.607 53.2245Z" fill="#005792"/>
<path d="M210.028 73.2345C210.111 72.815 210.295 72.4171 210.567 72.0688C210.839 71.7205 211.192 71.4302 211.601 71.2184C212.011 71.0066 212.467 70.8785 212.937 70.8431C213.408 70.8076 213.881 70.8658 214.324 71.0133L221.605 63.0084L223.369 68.1504L216.184 74.9636C215.86 75.6188 215.281 76.1439 214.557 76.4395C213.833 76.7351 213.014 76.7807 212.255 76.5675C211.496 76.3544 210.85 75.8974 210.44 75.2831C210.029 74.6688 209.883 73.9399 210.028 73.2345Z" fill="#E0AC69"/>
<path d="M219.538 73.2542L213.2 69.5521L219.232 63.7853L202.875 59.2908L207.084 48.2224L212.26 48.8901L225.42 57.6907C227.093 58.8182 228.21 60.4933 228.53 62.3561C228.85 64.2188 228.348 66.1206 227.131 67.6527L227.103 67.6801L219.538 73.2542Z" fill="#005792"/>
<path d="M196.802 32.339C200.195 34.2092 204.02 35.3472 207.98 35.6645L206.802 34.3898C207.66 34.6762 208.563 34.8381 209.477 34.8694C210.39 34.8565 211.346 34.5391 211.865 33.8603C212.096 33.5229 212.233 33.14 212.265 32.7443C212.297 32.3486 212.222 31.9518 212.047 31.5878C211.688 30.8618 211.129 30.2309 210.423 29.755C209.173 28.8618 207.697 28.2619 206.127 28.0086C204.558 27.7553 202.943 27.8566 201.427 28.3034C200.387 28.5839 199.456 29.1233 198.74 29.8595C198.061 30.6159 196.58 31.2962 196.927 32.2179L196.802 32.339Z" fill="#13334C"/>
<path d="M254.618 133H156.92C156.819 133 156.721 132.964 156.65 132.899C156.578 132.834 156.538 132.746 156.538 132.655C156.538 132.563 156.578 132.476 156.65 132.411C156.721 132.346 156.819 132.31 156.92 132.31H254.618C254.719 132.31 254.816 132.346 254.887 132.411C254.959 132.476 254.999 132.564 254.999 132.655C254.999 132.746 254.959 132.834 254.887 132.899C254.816 132.963 254.719 133 254.618 133Z" fill="#3F3D56"/>
</g>
<defs>
<clipPath id="clip0_312_144">
<rect width="255" height="133" fill="white"/>
</clipPath>
</defs>
</svg>
