<svg width="200" height="200" viewBox="0 0 200 200" fill="none" xmlns="http://www.w3.org/2000/svg">
<g clip-path="url(#clip0_114_286)">
<path d="M107.822 130.533L111.011 110.602L89.4853 101.832L86.2963 132.128L107.822 130.533Z" fill="#E0AC69"/>
<path d="M129.457 159.989C127.608 160.89 125.725 161.703 123.814 162.425C119.99 163.872 116.044 164.963 111.996 165.692C108.039 166.406 103.977 166.769 99.9143 166.769C94.4262 166.769 88.9697 166.111 83.6928 164.808C81.6265 164.301 79.5424 163.682 77.4936 162.96C77.2789 162.883 77.0607 162.805 76.8459 162.727C74.3043 161.805 71.8048 160.725 69.4005 159.503C69.0766 159.341 68.7528 159.176 68.4289 159C68.0698 158.817 67.7143 158.623 67.3552 158.422C66.8976 158.172 66.4434 157.912 65.9893 157.648C64.4686 156.768 62.9725 155.817 61.5432 154.828L61.4482 154.765C61.3637 154.705 61.2792 154.649 61.1982 154.589C61.251 154.311 61.3003 154.057 61.3461 153.832C61.5221 152.948 61.6383 152.463 61.6383 152.463L71.2768 132.552L73.9628 127.004L75.2723 126.465L85.1644 122.399H109.342L116.97 125.553C116.97 125.553 117.009 125.698 117.086 125.976C117.847 128.704 122.282 144.193 129.164 159.348C129.259 159.559 129.358 159.774 129.457 159.989L129.457 159.989V159.989Z" fill="#005792"/>
<path d="M102.382 117.009C114.506 117.009 124.334 107.181 124.334 95.0576C124.334 82.9343 114.506 73.1064 102.382 73.1064C90.2591 73.1064 80.4312 82.9343 80.4312 95.0576C80.4312 107.181 90.2591 117.009 102.382 117.009Z" fill="#E0AC69"/>
<path d="M75.3108 126.276L75.273 126.465L68.5805 158.285L68.5226 158.562L68.4294 159C68.0692 158.816 67.7141 158.622 67.3564 158.424C66.898 158.172 66.4446 157.912 65.9887 157.648C64.4699 156.769 62.9737 155.817 61.543 154.829L61.4473 154.764C61.3642 154.706 61.2785 154.648 61.1979 154.59C60.1048 153.827 59.0393 153.031 57.9991 152.21C57.9915 152.205 57.9865 152.2 57.9789 152.192C56.1226 150.696 54.3342 149.086 52.6239 147.376C51.5207 146.273 50.4603 145.137 49.4452 143.971L49.5989 143.326L49.614 143.26L49.8054 142.439C51.5081 135.248 57.2686 129.729 64.5253 128.339L74.1672 126.493L75.3108 126.276H75.3108Z" fill="#005792"/>
<path d="M143.675 150.685C140.834 153.103 137.789 155.293 134.575 157.215C134.262 157.405 133.941 157.591 133.621 157.778C132.255 158.567 130.865 159.302 129.456 159.989C127.608 160.89 125.725 161.703 123.814 162.425L123.666 161.728L116.108 125.789L117.086 125.976L126.894 127.856C134.149 129.246 139.912 134.766 141.612 141.958L143.488 149.903L143.675 150.685H143.675V150.685Z" fill="#005792"/>
<path d="M127.661 100.926C127.091 103.052 124.222 112.553 116.875 114.553C115.432 114.947 111.989 115.401 112.901 114.553C113.108 114.359 113.309 114.169 113.51 113.982C121.483 106.484 124.736 101.901 123.25 91.727C122.307 85.2496 111.563 79.3672 105.519 78.7828C102.97 78.5366 99.7171 79.3988 97.5698 81.6203C94.0249 85.2812 94.6092 96.5183 92.6449 103.119C92.1169 104.886 91.4093 106.322 90.3919 107.192C89.7582 107.734 89.3534 107.044 89.0542 105.914C88.4171 103.513 88.2516 99.1162 87.3469 100.359C84.7314 103.96 87.2237 108.733 87.977 110.575C88.1319 110.951 88.2903 111.314 88.4487 111.659V111.662C88.5402 111.859 88.6353 112.057 88.7268 112.243V112.247C91.2403 117.372 94.2607 119.206 96.9221 122.399C97.9676 123.649 98.9568 125.103 99.8404 127.046C100.446 128.377 100.882 129.714 101.182 131.027C102.706 137.61 100.896 143.591 100.407 145.218C99.3827 148.604 97.6226 154.423 92.4584 157.708C85.9739 161.834 80.0564 158.197 77.2261 162.115C77.1908 162.161 77.1591 162.207 77.1275 162.252C77.0219 162.411 76.9268 162.569 76.8459 162.727C74.3042 161.805 71.8048 160.725 69.4005 159.503C69.0766 159.341 68.7527 159.176 68.4289 159C68.0698 158.817 67.7143 158.623 67.3552 158.422C67.3411 158.148 67.327 157.873 67.3164 157.595C67.1088 152.832 67.4221 147.597 68.6084 142.377C69.3688 139.043 70.1222 135.737 71.2768 132.552C72.0301 130.475 72.9524 128.447 74.1669 126.493C75.1386 124.923 76.2931 123.399 77.6942 121.934C80.771 118.72 83.5063 117.379 83.9393 113.986C84.5588 109.142 79.5143 107.684 77.6942 100.359C76.4516 95.3494 75.1526 88.1294 76.4129 83.2642C77.6028 78.6669 78.6377 74.6784 82.0911 70.7707C82.9219 69.8342 89.7407 63.3217 97.6402 62.2515C101.28 61.7623 104.526 66.4233 108.926 67.4264C113.985 68.5777 116.882 69.236 119.712 71.4008C124.496 75.0548 125.845 80.5185 127.094 85.5947C128.073 89.5657 129.34 94.7017 127.661 100.925L127.661 100.926H127.661Z" fill="#2F2E41"/>
<path d="M147.376 52.6239C134.722 39.9695 117.896 33 100 33C82.1039 33 65.2784 39.9695 52.6239 52.6239C39.9695 65.2784 33 82.1039 33 100C33 116.334 38.8058 131.777 49.4452 143.971C50.4603 145.137 51.5207 146.273 52.6239 147.376C54.3342 149.086 56.1226 150.696 57.9789 152.192C57.9865 152.2 57.9915 152.205 57.9991 152.21C69.8651 161.794 84.5321 167 100 167C117.896 167 134.722 160.03 147.376 147.376C160.03 134.722 167 117.896 167 100C167 82.1039 160.03 65.2784 147.376 52.6239V52.6239ZM143.56 150.2C139.26 153.94 134.475 157.134 129.314 159.678C127.503 160.572 125.646 161.386 123.747 162.114C116.37 164.945 108.362 166.496 100 166.496C91.9298 166.496 84.192 165.05 77.0311 162.406C74.0917 161.323 71.2504 160.036 68.5226 158.562C68.1221 158.345 67.7241 158.126 67.3287 157.902C65.2482 156.723 63.2356 155.436 61.3037 154.046C56.9865 150.948 53.0547 147.346 49.5989 143.326C39.5715 131.679 33.5038 116.536 33.5038 100C33.5038 63.3339 63.3339 33.5038 100 33.5038C136.666 33.5038 166.496 63.3339 166.496 100C166.496 120.019 157.605 138.001 143.56 150.2V150.2Z" fill="#13334C"/>
</g>
<defs>
<clipPath id="clip0_114_286">
<rect width="134" height="134" fill="white" transform="translate(33 33)"/>
</clipPath>
</defs>
</svg>
