<svg width="200" height="200" viewBox="0 0 200 200" fill="none" xmlns="http://www.w3.org/2000/svg">
<g clip-path="url(#clip0_114_288)">
<rect width="166" height="96" transform="translate(17 52)" fill="white"/>
<path d="M181.926 147.752H89.4941C89.2092 147.752 88.9362 147.628 88.7348 147.409C88.5334 147.19 88.4201 146.893 88.4197 146.583V53.1691C88.4201 52.8592 88.5334 52.562 88.7348 52.3429C88.9362 52.1237 89.2092 52.0004 89.4941 52H181.926C182.211 52.0004 182.484 52.1237 182.685 52.3429C182.886 52.562 183 52.8592 183 53.1691V146.583C183 146.893 182.886 147.19 182.685 147.409C182.484 147.628 182.211 147.751 181.926 147.752V147.752ZM89.4941 52.4667C89.3234 52.4671 89.1598 52.5411 89.0391 52.6725C88.9184 52.8038 88.8504 52.9818 88.85 53.1676V146.583C88.8504 146.768 88.9184 146.946 89.0391 147.078C89.1598 147.209 89.3234 147.283 89.4941 147.283H181.926C182.096 147.283 182.26 147.209 182.381 147.078C182.501 146.946 182.569 146.768 182.57 146.583V53.1691C182.569 52.9834 182.501 52.8053 182.381 52.674C182.26 52.5426 182.096 52.4687 181.926 52.4683L89.4941 52.4667Z" fill="#E6E6E6"/>
<path d="M133.17 76.2738C132.976 76.2738 132.791 76.3575 132.654 76.5063C132.517 76.6552 132.44 76.8571 132.44 77.0676C132.44 77.2781 132.517 77.48 132.654 77.6288C132.791 77.7777 132.976 77.8613 133.17 77.8613H173.191C173.385 77.8613 173.57 77.7777 173.707 77.6288C173.844 77.48 173.921 77.2781 173.921 77.0676C173.921 76.8571 173.844 76.6552 173.707 76.5063C173.57 76.3575 173.385 76.2738 173.191 76.2738H133.17Z" fill="#E6E6E6"/>
<path d="M133.17 81.0367C132.976 81.0367 132.791 81.1203 132.654 81.2691C132.517 81.418 132.44 81.6199 132.44 81.8304C132.44 82.0409 132.517 82.2428 132.654 82.3916C132.791 82.5405 132.976 82.6241 133.17 82.6241H153.601C153.795 82.6241 153.98 82.5405 154.117 82.3916C154.254 82.2428 154.331 82.0409 154.331 81.8304C154.331 81.6199 154.254 81.418 154.117 81.2691C153.98 81.1203 153.795 81.0367 153.601 81.0367H133.17Z" fill="#E6E6E6"/>
<path d="M98.1896 104.089C97.9961 104.089 97.8106 104.173 97.6738 104.322C97.5371 104.471 97.4602 104.673 97.4602 104.883C97.4602 105.094 97.5371 105.295 97.6738 105.444C97.8106 105.593 97.9961 105.677 98.1896 105.677H173.23C173.424 105.677 173.609 105.593 173.746 105.444C173.883 105.295 173.96 105.094 173.96 104.883C173.96 104.673 173.883 104.471 173.746 104.322C173.609 104.173 173.424 104.089 173.23 104.089H98.1896Z" fill="#E6E6E6"/>
<path d="M98.1896 108.852C97.9961 108.852 97.8106 108.936 97.6738 109.085C97.5371 109.234 97.4602 109.435 97.4602 109.646C97.4602 109.856 97.5371 110.058 97.6738 110.207C97.8106 110.356 97.9961 110.44 98.1896 110.44H153.64C153.834 110.44 154.019 110.356 154.156 110.207C154.293 110.058 154.37 109.856 154.37 109.646C154.37 109.435 154.293 109.234 154.156 109.085C154.019 108.936 153.834 108.852 153.64 108.852H98.1896Z" fill="#E6E6E6"/>
<path d="M98.1896 113.507C97.9961 113.507 97.8106 113.591 97.6738 113.74C97.5371 113.889 97.4602 114.09 97.4602 114.301C97.4602 114.511 97.5371 114.713 97.6738 114.862C97.8106 115.011 97.9961 115.095 98.1896 115.095H173.23C173.424 115.095 173.609 115.011 173.746 114.862C173.883 114.713 173.96 114.511 173.96 114.301C173.96 114.09 173.883 113.889 173.746 113.74C173.609 113.591 173.424 113.507 173.23 113.507H98.1896Z" fill="#E6E6E6"/>
<path d="M98.1896 118.27C97.9961 118.27 97.8106 118.354 97.6738 118.503C97.5371 118.651 97.4602 118.853 97.4602 119.064C97.4602 119.274 97.5371 119.476 97.6738 119.625C97.8106 119.774 97.9961 119.857 98.1896 119.857H153.64C153.834 119.857 154.019 119.774 154.156 119.625C154.293 119.476 154.37 119.274 154.37 119.064C154.37 118.853 154.293 118.651 154.156 118.503C154.019 118.354 153.834 118.27 153.64 118.27H98.1896Z" fill="#E6E6E6"/>
<path d="M123.055 92.9969H65.0387C64.7538 92.9965 64.4808 92.8733 64.2794 92.6541C64.078 92.4349 63.9647 92.1377 63.9644 91.8278V64.1202C63.9647 63.8103 64.078 63.5131 64.2794 63.2939C64.4808 63.0747 64.7538 62.9514 65.0387 62.9511H123.055C123.34 62.9514 123.613 63.0747 123.815 63.2939C124.016 63.5131 124.129 63.8103 124.13 64.1202V91.8278C124.129 92.1377 124.016 92.4349 123.815 92.6541C123.613 92.8733 123.34 92.9965 123.055 92.9969Z" fill="#005792"/>
<path d="M172.766 136.801H150.775C150.49 136.801 150.217 136.677 150.016 136.458C149.814 136.239 149.701 135.942 149.701 135.632V131.797C149.701 131.487 149.814 131.19 150.016 130.971C150.217 130.752 150.49 130.629 150.775 130.628H172.766C173.051 130.629 173.324 130.752 173.525 130.971C173.727 131.19 173.84 131.487 173.84 131.797V135.632C173.84 135.942 173.727 136.239 173.525 136.458C173.324 136.677 173.051 136.801 172.766 136.801Z" fill="#005792"/>
<path d="M42.4463 98.8942C41.4986 98.1243 41.2205 96.6856 41.8251 95.6807C41.8852 95.5823 41.9531 95.4899 42.0281 95.4045L42.0887 74.935L44.8846 75.5031L45.0075 95.6353C45.6445 96.4395 45.7731 97.6113 45.2572 98.4688C44.6525 99.4736 43.3941 99.6641 42.4463 98.8942Z" fill="#E0AC69"/>
<path d="M56.9867 144.711L59.8692 144.711L61.2405 132.612L56.9863 132.612L56.9867 144.711Z" fill="#E0AC69"/>
<path d="M56.2515 143.687L61.9281 143.687H61.9283C62.8877 143.687 63.8078 144.102 64.4862 144.84C65.1647 145.578 65.5458 146.58 65.5459 147.624V147.752L56.2516 147.752L56.2515 143.687Z" fill="#13334C"/>
<path d="M30.1837 144.711L33.0663 144.711L34.4375 132.612L30.1833 132.612L30.1837 144.711Z" fill="#E0AC69"/>
<path d="M29.4485 143.687L35.1251 143.687H35.1253C36.0847 143.687 37.0048 144.102 37.6833 144.84C38.3617 145.578 38.7428 146.58 38.7429 147.624V147.752L29.4487 147.752L29.4485 143.687Z" fill="#13334C"/>
<path d="M56.8185 141.332L56.5769 139.754C56.3288 139.66 56.1179 139.476 55.9795 139.233C55.72 138.787 55.6787 138.159 55.8565 137.366L53.9117 119.493L43.758 108.028L37.2442 125.126L34.6656 138.656V140.611L29.5173 141.33L29.7516 139.488C29.5546 139.396 29.3905 139.237 29.2841 139.034C28.9883 138.499 28.9924 137.668 29.2961 136.566L29.3093 136.519L29.2925 136.354C29.2807 136.239 29.3581 125.187 32.377 119.712L35.4004 103.088C35.3219 102.854 34.9343 101.49 35.6452 99.1871C36.3468 96.914 38.309 93.2521 43.6727 88.7155L43.6911 88.6999L43.714 88.6947C43.7734 88.6813 49.6892 87.4014 52.7487 91.7554L52.7694 91.7848V91.8219C52.7694 92.0911 52.7641 98.3553 52.309 99.7453L59.569 114.272C59.7103 114.435 60.9795 116.03 60.5287 120.224L61.7015 134.519C61.8357 134.798 63.0497 137.424 61.7117 138.463L61.9516 140.268L56.8185 141.332Z" fill="#13334C"/>
<path d="M44.6733 81.261C43.3102 81.261 41.4986 80.7366 40.3897 78.3198L40.3679 78.2723L43.0998 71.9703C43.4537 71.1538 44.0873 70.5205 44.8648 70.2059C45.6423 69.8912 46.5021 69.9202 47.2603 70.2867C48.0184 70.6531 48.6146 71.3279 48.9214 72.1667C49.2282 73.0055 49.2211 73.9416 48.9018 74.7748L46.5399 80.9365L46.4988 80.9531C45.9089 81.1593 45.2929 81.2632 44.6733 81.261V81.261Z" fill="#005792"/>
<path d="M52.2408 93.7557L43.6285 89.33L44.8123 73.6127L46.9705 70.7422L47.3886 70.6447C49.3101 70.197 51.3066 70.3174 53.1708 70.9933L53.2118 71.0081L56.7569 79.2382C56.7791 79.2792 59.3357 84.1912 55.8015 86.781L52.2408 93.7557Z" fill="#005792"/>
<path d="M64.0806 88.7468C63.9778 88.7934 63.8786 88.8488 63.7838 88.9124L54.7086 84.3947L54.4758 81.7686L50.7879 81.6329L50.7849 86.3256C50.7846 86.7047 50.8974 87.0737 51.1062 87.3771C51.3151 87.6805 51.6087 87.9021 51.9431 88.0084L62.8409 91.4744C62.9529 91.925 63.1882 92.3279 63.5157 92.6294C63.8431 92.9309 64.2472 93.1168 64.6741 93.1623C65.101 93.2079 65.5305 93.1109 65.9055 92.8842C66.2806 92.6576 66.5833 92.3121 66.7735 91.8937C66.9636 91.4753 67.0322 91.0038 66.9702 90.5419C66.9081 90.08 66.7183 89.6496 66.4259 89.308C66.1336 88.9664 65.7526 88.7297 65.3337 88.6294C64.9147 88.5292 64.4777 88.5701 64.0806 88.7468L64.0806 88.7468Z" fill="#E0AC69"/>
<path d="M52.9801 82.8893C51.946 82.8893 50.7789 82.5001 49.6587 81.2811L49.6242 81.2435L50.3811 74.3243C50.4792 73.4279 50.8957 72.6088 51.5417 72.0423C52.1876 71.4758 53.0116 71.207 53.8374 71.2932C54.6631 71.3795 55.4251 71.814 55.9602 72.5039C56.4953 73.1937 56.7611 74.0841 56.7006 74.9845L56.2538 81.643L56.2196 81.6728C56.1977 81.692 54.7936 82.8893 52.9801 82.8893Z" fill="#005792"/>
<path d="M55.7475 65.267C57.2772 62.2216 56.2488 58.4033 53.4503 56.7385C50.6519 55.0738 47.1432 56.193 45.6135 59.2384C44.0837 62.2837 45.1122 66.1021 47.9106 67.7668C50.709 69.4316 54.2177 68.3123 55.7475 65.267Z" fill="#E0AC69"/>
<path d="M56.5576 58.923C56.271 57.1093 54.9332 55.6058 53.3394 54.9906C51.7455 54.3754 49.9483 54.5755 48.3875 55.2839C48.1276 55.4024 47.8735 55.5354 47.6261 55.6823C47.0557 54.499 45.6571 53.8127 44.3779 53.8868C42.8325 53.9762 41.4368 54.8661 40.0946 55.7048C38.7524 56.5434 37.3122 57.3779 35.7649 57.3388C32.9688 57.2683 30.8886 54.4472 28.1999 53.6088C27.003 53.2356 25.7294 53.2734 24.553 53.7169C23.3765 54.1605 22.3544 54.9882 21.6262 56.0873C20.898 57.1863 20.4991 58.503 20.484 59.8579C20.4688 61.2127 20.8381 62.5397 21.5415 63.6577C22.6888 61.4203 25.3829 60.6647 27.7205 60.9693C30.0581 61.2738 32.2368 62.3889 34.5269 62.9829C36.8171 63.5769 39.4694 63.5514 41.2433 61.8669C42.2496 60.9115 42.8404 59.5459 43.7164 58.449C44.309 57.7071 45.1525 57.0806 46.0145 56.9331C45.1655 57.7652 44.5173 58.8114 44.127 59.9799C43.4358 62.1169 43.8053 64.6827 45.2391 66.3252C46.7762 68.0861 49.1886 68.5554 51.4203 68.5269L51.4669 68.4753C50.7837 67.3623 50.2444 65.819 50.9967 64.76C51.7393 63.7147 53.204 63.8687 54.3413 63.4061C55.9253 62.7619 56.844 60.7367 56.5576 58.923Z" fill="#13334C"/>
<path d="M72.145 148H17.2013C17.1479 148 17.0967 147.977 17.0589 147.936C17.0212 147.895 17 147.839 17 147.781C17 147.723 17.0212 147.667 17.0589 147.626C17.0967 147.585 17.1479 147.562 17.2013 147.562H72.145C72.1984 147.562 72.2495 147.585 72.2873 147.626C72.325 147.667 72.3462 147.723 72.3462 147.781C72.3462 147.839 72.325 147.895 72.2873 147.936C72.2495 147.977 72.1984 148 72.145 148Z" fill="#CCCCCC"/>
<path d="M91.4437 72.6689C91.1918 72.6698 90.9879 73.0258 90.9884 73.4642C90.9889 73.9013 91.1925 74.2555 91.4437 74.2564H112.952C113.204 74.2555 113.408 73.8994 113.407 73.4611C113.407 73.0239 113.203 72.6698 112.952 72.6689H91.4437Z" fill="white"/>
<path d="M91.4437 77.2683C91.1918 77.2692 90.9879 77.6252 90.9884 78.0636C90.9889 78.5007 91.1925 78.8549 91.4437 78.8558H112.952C113.204 78.8549 113.408 78.4988 113.407 78.0605C113.407 77.6233 113.203 77.2692 112.952 77.2683H91.4437Z" fill="white"/>
<path d="M91.4437 81.8121C91.1918 81.813 90.9879 82.169 90.9884 82.6074C90.9889 83.0445 91.1925 83.3987 91.4437 83.3996H100.699C100.951 83.3987 101.155 83.0426 101.154 82.6043C101.154 82.1671 100.95 81.813 100.699 81.8121H91.4437Z" fill="white"/>
<path d="M80.5229 84.3256C83.7463 84.3256 86.3594 81.4819 86.3594 77.974C86.3594 74.4661 83.7463 71.6224 80.5229 71.6224C77.2995 71.6224 74.6864 74.4661 74.6864 77.974C74.6864 81.4819 77.2995 84.3256 80.5229 84.3256Z" fill="white"/>
</g>
<defs>
<clipPath id="clip0_114_288">
<rect width="166" height="96" fill="white" transform="translate(17 52)"/>
</clipPath>
</defs>
</svg>
