<svg width="200" height="200" viewBox="0 0 557 322" fill="none" xmlns="http://www.w3.org/2000/svg">
<path d="M111.124 290.699C121.244 301.72 142.249 302.879 142.249 302.879C142.249 302.879 146.849 286.172 136.729 275.151C126.61 264.131 105.604 262.971 105.604 262.971C105.604 262.971 101.005 279.679 111.124 290.699Z" fill="#E6E6E6"/>
<path d="M162.674 294.842C155.997 302.114 142.136 302.879 142.136 302.879C142.136 302.879 139.101 291.854 145.778 284.582C152.456 277.31 166.317 276.545 166.317 276.545C166.317 276.545 169.352 287.57 162.674 294.842Z" fill="#E6E6E6"/>
<path d="M556.626 302.349H90.6492V303.627H556.626V302.349Z" fill="#3F3D56"/>
<path d="M536.856 67.7487L540.916 69.3993C540.916 69.3993 562.904 114.24 555.462 124.969C548.02 135.697 524.678 155.779 524.678 155.779L520.28 145.601L538.266 113.891L536.856 67.7487Z" fill="#575A89"/>
<path opacity="0.1" d="M536.856 67.7487L540.916 69.3993C540.916 69.3993 562.904 114.24 555.462 124.969C548.02 135.697 524.678 155.779 524.678 155.779L520.28 145.601L538.266 113.891L536.856 67.7487Z" fill="#005792"/>
<path d="M532.459 291.952C532.459 291.952 538.209 302.681 535.165 303.506C532.12 304.331 528.399 304.331 524.678 304.331C520.957 304.331 516.559 303.231 515.882 302.131C515.206 301.03 518.589 293.878 518.589 293.878L532.459 291.952Z" fill="#575A89"/>
<path d="M454.991 297.454C454.991 297.454 458.712 307.082 457.021 307.632C455.329 308.183 449.917 310.658 446.872 309.833C443.827 309.008 439.091 307.082 438.076 306.257C437.062 305.432 438.076 301.03 438.076 301.03L442.812 295.528L454.991 297.454Z" fill="#575A89"/>
<path d="M521.633 154.404L526.483 155.779C526.483 155.779 527.723 165.133 526.369 168.434C525.016 171.735 521.972 195.668 523.663 200.62C525.355 205.572 524.34 213.55 524.34 213.55C524.34 213.55 534.488 240.509 532.459 246.286C530.429 252.063 530.767 260.316 532.797 264.442C534.827 268.569 536.518 270.219 535.503 273.521C534.488 276.822 532.459 278.472 534.488 281.223C536.518 283.974 540.578 284.799 538.548 287.275C536.518 289.751 534.488 291.677 535.165 293.327C535.842 294.978 517.236 298.004 515.544 295.528C515.544 295.528 520.957 291.677 515.544 289.476C510.132 287.275 511.823 279.022 511.823 279.022C511.823 279.022 502.351 247.386 502.689 244.911C503.028 242.435 487.805 203.921 487.805 203.921C487.805 203.921 465.478 258.94 464.125 261.416C462.771 263.892 465.816 269.944 464.125 271.595C462.433 273.245 464.801 277.372 462.433 279.022C460.065 280.673 466.493 286.725 462.433 288.926C458.374 291.127 456.344 298.004 456.682 299.38C457.021 300.755 439.768 299.104 439.768 297.179C439.768 295.253 440.106 293.603 438.415 290.301C436.723 287 435.708 284.799 437.062 283.699C438.415 282.599 439.43 281.223 438.076 277.372C436.723 273.521 440.106 261.691 439.091 259.491C438.076 257.29 438.415 242.435 438.415 242.435C438.415 242.435 441.798 220.702 440.783 217.126C439.768 213.55 440.783 212.724 441.121 211.349C441.459 209.973 443.489 195.118 444.842 192.917C446.195 190.717 447.887 153.028 455.667 151.103C463.448 149.177 521.633 154.404 521.633 154.404Z" fill="#2F2E41"/>
<path d="M524.34 301.855C524.34 301.855 536.518 300.205 537.195 301.855C537.871 303.506 539.901 316.435 535.165 316.711C530.429 316.986 522.31 317.811 520.957 315.335C519.604 312.859 513.176 311.209 513.176 311.209C513.176 311.209 503.704 309.008 503.704 306.532C503.704 304.056 504.042 300.205 505.734 299.93C507.425 299.655 514.191 296.629 514.191 295.528C514.191 294.428 524.34 301.855 524.34 301.855Z" fill="#2F2E41"/>
<path d="M448.225 306.257C448.225 306.257 457.021 304.056 459.05 305.432C461.08 306.807 463.786 321.937 459.05 321.662C454.314 321.387 441.798 323.038 441.121 320.837C440.444 318.636 431.311 318.086 431.311 318.086C431.311 318.086 421.5 314.235 422.177 310.108C422.853 305.982 423.868 304.606 427.928 304.331C431.987 304.056 435.032 300.205 435.37 299.93C435.708 299.655 438.691 297.644 439.06 299.887C439.43 302.13 443.827 307.082 448.225 306.257Z" fill="#2F2E41"/>
<path d="M475.965 39.689C487.361 39.689 496.6 32.1759 496.6 22.9081C496.6 13.6403 487.361 6.12726 475.965 6.12726C464.568 6.12726 455.329 13.6403 455.329 22.9081C455.329 32.1759 464.568 39.689 475.965 39.689Z" fill="#A0616A"/>
<path d="M493.894 26.7594C493.894 26.7594 495.247 45.1909 500.321 46.8414C505.396 48.492 474.611 48.492 474.611 48.492C474.611 48.492 474.273 36.938 469.875 34.187C465.478 31.4361 493.894 26.7594 493.894 26.7594Z" fill="#A0616A"/>
<path d="M502.013 42.715C502.013 42.715 481.039 36.3878 473.597 46.2913C473.597 46.2913 449.917 55.3694 448.225 60.8713C446.534 66.3733 462.433 107.638 462.433 107.638C462.433 107.638 462.433 141.75 459.05 145.326C455.667 148.902 449.24 152.753 453.638 153.579C458.035 154.404 527.046 160.456 526.708 156.88C526.369 153.304 521.972 150.278 526.708 148.077C531.444 145.876 527.384 143.4 530.429 136.248C533.474 129.095 540.916 69.9495 540.916 69.9495C540.916 69.9495 535.842 62.5219 534.827 61.6966C533.812 60.8714 502.013 42.715 502.013 42.715Z" fill="#005792"/>
<path d="M441.459 163.207C441.459 163.207 428.266 187.416 439.768 190.717C451.27 194.018 450.593 165.133 450.593 165.133L441.459 163.207Z" fill="#A0616A"/>
<path d="M485.863 26.029C484.667 24.08 482.876 21.8315 480.201 21.9502C478.849 22.0102 477.683 22.6946 476.477 23.1969C475.272 23.6993 473.728 24.0107 472.625 23.3704C471.013 22.434 471.513 20.2129 470.071 19.1081C468.497 17.9021 465.331 18.5754 464.315 17.0227C463.773 16.1936 464.211 15.1649 463.974 14.2457C462.328 14.3601 460.669 14.2035 459.099 13.7851C457.572 13.2817 456.249 12.1152 456.292 10.7755C456.337 10.3191 456.495 9.87469 456.754 9.46831C457.014 9.06193 457.37 8.70174 457.803 8.40885C459.883 6.87117 462.891 6.57629 465.457 5.64372C467.499 4.90157 469.275 3.74495 471.282 2.94216C474.736 1.5605 478.722 1.29256 482.56 1.53109C488.38 1.89277 494.266 3.46346 498.486 6.7425C502.707 10.0215 504.941 15.1946 503.12 19.7047C502.089 22.2603 499.903 24.4083 498.683 26.9085C497.936 28.6194 497.417 30.391 497.137 32.1924L496.281 36.4651C496.414 35.8002 494.619 34.1323 494.03 33.7354C492.746 32.8697 490.877 33.1635 489.685 32.3616C487.921 31.1756 486.901 27.7199 485.863 26.029Z" fill="#2F2E41"/>
<path opacity="0.1" d="M456.006 58.9457L450.593 61.6967C450.593 61.6967 441.798 104.887 442.812 110.939C443.827 116.991 438.753 151.103 440.444 153.854C442.136 156.605 442.812 157.155 442.812 158.806C442.812 160.456 438.076 166.508 441.121 167.609C444.166 168.709 455.329 170.635 455.329 167.609C455.329 164.583 453.299 160.456 457.021 158.53C460.742 156.605 463.448 144.225 463.448 144.225C463.448 144.225 465.139 131.571 466.831 129.095C468.522 126.619 470.89 117.541 470.89 113.69C470.89 109.838 474.95 94.158 472.582 86.1802C470.214 78.2024 469.537 56.7449 456.006 58.9457Z" fill="black"/>
<path d="M453.638 58.1204L448.225 60.8713C448.225 60.8713 439.43 104.061 440.444 110.114C441.459 116.166 436.385 150.278 438.076 153.028C439.768 155.779 440.444 156.33 440.444 157.98C440.444 159.631 435.708 165.683 438.753 166.783C441.798 167.884 452.961 169.809 452.961 166.783C452.961 163.757 450.931 159.631 454.653 157.705C458.374 155.779 461.08 143.4 461.08 143.4C461.08 143.4 462.771 130.746 464.463 128.27C466.154 125.794 468.522 116.716 468.522 112.864C468.522 109.013 472.582 93.3327 470.214 85.3549C467.846 77.3771 467.169 55.9196 453.638 58.1204Z" fill="#005792"/>
<path d="M398.306 0H0V162.502H398.306V0Z" fill="#E6E6E6"/>
<path d="M380.016 13.2205H18.2896V149.282H380.016V13.2205Z" fill="white"/>
<path d="M25.3733 24.2614L24.4154 25.0404L72.9893 64.5402L88.2303 52.1461L114.987 73.9051L147.84 47.1886L203.725 92.6344L229.127 71.9768L284.673 117.147L315.833 91.808L372.933 138.241L373.891 137.462L315.833 90.25L284.673 115.59L229.127 70.4194L203.725 91.0764L147.84 45.6306L114.987 72.3472L88.2303 50.5882L72.9893 62.9828L25.3733 24.2614Z" fill="#005792"/>
<path d="M150.211 53.8462C154.701 53.8462 158.34 50.8866 158.34 47.2359C158.34 43.5851 154.701 40.6256 150.211 40.6256C145.722 40.6256 142.083 43.5851 142.083 47.2359C142.083 50.8866 145.722 53.8462 150.211 53.8462Z" fill="#005792"/>
<path d="M202.371 97.3638C206.86 97.3638 210.499 94.4042 210.499 90.7535C210.499 87.1027 206.86 84.1432 202.371 84.1432C197.881 84.1432 194.242 87.1027 194.242 90.7535C194.242 94.4042 197.881 97.3638 202.371 97.3638Z" fill="#005792"/>
<path d="M315.495 97.3638C319.984 97.3638 323.624 94.4042 323.624 90.7535C323.624 87.1027 319.984 84.1432 315.495 84.1432C311.006 84.1432 307.366 87.1027 307.366 90.7535C307.366 94.4042 311.006 97.3638 315.495 97.3638Z" fill="#005792"/>
</svg>
